<svg width="120" height="29" viewBox="0 0 120 29" fill="none" xmlns="http://www.w3.org/2000/svg">
<path fill-rule="evenodd" clip-rule="evenodd" d="M0 10.4549C0 4.66287 3.86552 0 8.66715 0H108.237H111.333H120V10.4549V14.189V18.5451C120 24.3371 116.134 29 111.333 29H11.7628H8.66715H0V18.5451V14.811V10.4549ZM70.769 4.82344C70.0952 4.57024 69.4075 4.44406 68.7042 4.44406L68.7035 4.44347C68.0181 4.44347 67.451 4.59074 66.9995 4.88661C66.5549 5.1755 66.248 5.5514 66.0773 6.01662C65.9135 6.48107 65.8309 7.18488 65.8309 8.1281V8.97153H64.46V11.305H65.8309V20.1828H68.2997V11.305H70.1448V8.9716H68.2997V8.18046C68.2997 7.60965 68.3767 7.22678 68.5282 7.02954C68.6878 6.82781 68.9452 6.72321 69.3017 6.72321C69.6651 6.72321 70.0436 6.77634 70.4359 6.89256L70.769 4.82344ZM60.551 4.70742H63.0203V20.1829H60.551V4.70742ZM74.0202 4.70742H71.5509V20.1829H74.0202V4.70742ZM12.1499 8.71861C13.2511 8.71861 14.0707 8.878 14.6096 9.19313C15.1478 9.50294 15.5263 9.89959 15.7437 10.3856C15.9653 10.8647 16.0768 11.7475 16.0768 13.0353L16.0493 16.4978C16.0493 17.4827 16.0906 18.2112 16.1594 18.6828C16.242 19.148 16.3907 19.647 16.6081 20.1822H14.166C14.0971 19.985 14.0214 19.6926 13.9278 19.3051C13.8865 19.1288 13.859 19.0127 13.8453 18.9571C13.4241 19.4502 12.9726 19.8191 12.4922 20.065C12.0119 20.3109 11.4998 20.4351 10.9546 20.4351C9.9939 20.4351 9.23536 20.1218 8.67888 19.4954C8.12831 18.8689 7.85303 18.0771 7.85303 17.12C7.85303 16.4866 7.9769 15.9239 8.23154 15.4313C8.48343 14.9312 8.83579 14.5518 9.28588 14.2908C9.74285 14.024 10.398 13.7907 11.2536 13.5948C12.407 13.3349 13.2071 13.0924 13.6521 12.8662V12.5704C13.6521 12.0007 13.5283 11.5946 13.2998 11.356C13.0658 11.1101 12.624 10.9859 11.9729 10.9859C11.5338 10.9859 11.1911 11.0905 10.9447 11.3027C10.6984 11.5069 10.5001 11.8689 10.3474 12.3897L8.1067 11.9036C8.35859 10.8201 8.79216 10.0174 9.40741 9.49675C10.0227 8.97591 10.9361 8.71474 12.1485 8.71474L12.1499 8.71861ZM24.766 9.46811C24.1451 8.96803 23.197 8.71865 21.9197 8.71865L21.9205 8.7225C20.5792 8.7225 19.5894 9.05307 18.9508 9.71437C18.3121 10.3759 17.9928 11.1912 17.9928 12.1634C17.9928 13.2402 18.3617 14.0823 19.0994 14.6866C19.6324 15.123 20.8941 15.6045 22.8857 16.1323C23.3137 16.253 23.5876 16.3821 23.7115 16.5233C23.8312 16.6705 23.8863 16.8573 23.8863 17.0825C23.8863 17.413 23.7776 17.6764 23.5615 17.8736C23.2399 18.1549 22.7596 18.296 22.1209 18.296C21.5414 18.296 21.09 18.1476 20.7679 17.8517C20.4458 17.5488 20.2366 17.1092 20.1265 16.5326L17.6494 16.9862C17.8781 18.0488 18.3612 18.8892 19.099 19.5087C19.8428 20.1282 20.8508 20.438 22.1212 20.438C23.5211 20.438 24.5786 20.0679 25.293 19.3289C26.0087 18.5901 26.3652 17.7078 26.3652 16.6799C26.3652 15.7369 26.1065 15.001 25.5917 14.4732C25.0704 13.952 24.1503 13.5124 22.8331 13.1539C21.5209 12.7943 20.7529 12.517 20.5313 12.3198C20.3675 12.1725 20.2849 11.9927 20.2849 11.7815C20.2849 11.5354 20.3785 11.3354 20.5657 11.1793C20.8466 10.9557 21.3132 10.8511 21.9629 10.8511C22.4791 10.8511 22.8741 10.9683 23.1494 11.2002C23.4315 11.4322 23.6242 11.7652 23.7206 12.2026L26.0488 11.685C25.8148 10.7069 25.3867 9.9682 24.766 9.46811ZM32.7701 8.71854C34.1818 8.71854 35.3385 9.27075 36.2405 10.3759C37.142 11.4733 37.5935 12.8636 37.5935 14.5455C37.5935 16.2416 37.1365 17.6488 36.2226 18.7677C35.3142 19.8802 34.1697 20.4361 32.7873 20.4361C31.9326 20.4361 31.1151 20.203 30.3362 19.7401C29.5627 19.2749 28.9736 18.5961 28.57 17.7028C28.1667 16.8026 27.9644 15.7079 27.9644 14.4201C27.9644 13.435 28.1667 12.4811 28.57 11.5593C28.9747 10.6382 29.5459 9.93352 30.2836 9.44781C31.0269 8.96167 31.8562 8.71927 32.7699 8.71927L32.7701 8.71854ZM46.2213 9.60481C45.5535 9.0144 44.6519 8.71854 43.515 8.71854L43.5139 8.71729C42.1258 8.71729 41.0256 9.23415 40.2108 10.269C39.3973 11.2966 38.9899 12.7356 38.9899 14.5864C38.9899 16.4163 39.3946 17.8479 40.2025 18.8828C41.0167 19.9173 42.106 20.4347 43.4714 20.4347C44.6722 20.4347 45.6297 20.0936 46.3441 19.4114C47.0586 18.7288 47.5417 17.7183 47.7936 16.3811L45.369 15.8857C45.2452 16.6663 45.0346 17.2186 44.7359 17.5423C44.4372 17.8575 44.0532 18.0168 43.5852 18.0168C42.9585 18.0168 42.4575 17.7431 42.0831 17.1943C41.7142 16.6453 41.5298 15.7057 41.5298 14.3756C41.5298 13.1793 41.7115 12.3283 42.0749 11.8212C42.4444 11.3072 42.9372 11.0508 43.5511 11.0508C44.0135 11.0508 44.3879 11.1981 44.6756 11.494C44.9674 11.7893 45.1546 12.2301 45.2372 12.8137L47.6708 12.2859C47.3775 11.0825 46.8944 10.1884 46.2213 9.60481ZM53.7859 8.71854C55.1975 8.71854 56.3541 9.27075 57.2562 10.3759C58.1578 11.4733 58.6092 12.8636 58.6092 14.5455C58.6092 16.2416 58.1523 17.6488 57.2383 18.7677C56.3299 19.8802 55.1854 20.4361 53.8031 20.4361C52.9483 20.4361 52.131 20.203 51.352 19.7401C50.5784 19.2749 49.9907 18.5961 49.5863 17.7028C49.1816 16.8026 48.9793 15.7079 48.9793 14.4201C48.9793 13.435 49.1816 12.4811 49.5863 11.5593C49.9896 10.6382 50.5608 9.93352 51.2994 9.44781C52.0426 8.96167 52.8718 8.71927 53.7856 8.71927L53.7859 8.71854ZM84.2465 10.3759C83.3445 9.27075 82.1878 8.71854 80.7763 8.71854L80.7758 8.71927C79.862 8.71927 79.0329 8.96167 78.2896 9.44781C77.5517 9.93352 76.9791 10.6382 76.5759 11.5593C76.1726 12.4811 75.9702 13.435 75.9702 14.4201C75.9702 15.7079 76.1726 16.8026 76.5759 17.7028C76.9794 18.5961 77.5685 19.2749 78.3421 19.7401C79.1211 20.203 79.9384 20.4361 80.7932 20.4361C82.1755 20.4361 83.3202 19.8802 84.2286 18.7677C85.1425 17.6488 85.5995 16.2416 85.5995 14.5455C85.5995 12.8636 85.148 11.4733 84.2465 10.3759ZM91.8552 8.71857C92.4182 8.71857 92.9591 8.9042 93.4809 9.27777L92.7156 11.8643C92.2999 11.5406 91.9132 11.3782 91.5567 11.3782C91.2112 11.3782 90.918 11.4944 90.6771 11.7274C90.4363 11.9523 90.2463 12.3642 90.1059 12.9628C89.9683 13.5603 89.9036 14.8136 89.9036 16.7206V20.1832H87.4343V8.9721H89.7276V10.5662C90.1198 9.81322 90.4722 9.31678 90.7819 9.0777C91.0985 8.83762 91.455 8.71924 91.8541 8.71924L91.8552 8.71857ZM101.379 10.3759C100.577 9.27081 99.4814 8.7186 98.0931 8.7186L98.0926 8.71841C96.8567 8.71841 95.8343 9.24573 95.0264 10.3015C94.2184 11.3501 93.8137 12.8039 93.8137 14.6618C93.8137 16.2171 94.1207 17.5043 94.7359 18.5252C95.515 19.799 96.7158 20.4359 98.3383 20.4359C99.3633 20.4359 100.215 20.1539 100.895 19.5913C101.58 19.0212 102.081 18.1945 102.398 17.111L99.9374 16.6156C99.8025 17.1787 99.6029 17.5872 99.34 17.84C99.0771 18.0932 98.7523 18.2194 98.3655 18.2194C97.798 18.2194 97.3232 17.977 96.9419 17.4909C96.5606 16.9982 96.3583 16.312 96.3446 15.4325H102.53C102.565 13.1595 102.181 11.4734 101.379 10.3759ZM107.951 8.71865C109.228 8.71865 110.177 8.96803 110.798 9.46811C111.419 9.9682 111.847 10.7069 112.081 11.685L109.752 12.2026C109.656 11.7652 109.462 11.4322 109.181 11.2002C108.906 10.9683 108.511 10.8511 107.995 10.8511C107.345 10.8511 106.879 10.9557 106.598 11.1793C106.411 11.3354 106.317 11.5354 106.317 11.7815C106.317 11.9927 106.4 12.1725 106.563 12.3198C106.785 12.517 107.553 12.7943 108.865 13.1539C110.182 13.5124 111.102 13.952 111.624 14.4732C112.14 15.001 112.397 15.7369 112.397 16.6799C112.397 17.7078 112.039 18.5901 111.325 19.3289C110.611 20.0679 109.553 20.438 108.153 20.438C106.883 20.438 105.875 20.1282 105.131 19.5087C104.393 18.8892 103.91 18.0488 103.681 16.9862L106.159 16.5326C106.269 17.1092 106.477 17.5488 106.799 17.8517C107.121 18.1476 107.573 18.296 108.152 18.296C108.791 18.296 109.271 18.1549 109.593 17.8736C109.809 17.6764 109.918 17.413 109.918 17.0825C109.918 16.8573 109.863 16.6705 109.742 16.5233C109.618 16.3821 109.344 16.253 108.916 16.1323C106.924 15.6045 105.662 15.123 105.129 14.6866C104.391 14.0823 104.022 13.2402 104.022 12.1634C104.022 11.1912 104.342 10.3759 104.98 9.71437C105.619 9.05307 106.609 8.7225 107.95 8.7225L107.951 8.71865ZM96.9076 11.6955C97.2586 11.2235 97.7046 10.9879 98.2428 10.9879L98.2429 10.9881C98.7467 10.9881 99.1747 11.2133 99.5257 11.6634C99.8767 12.1069 100.065 12.7577 100.079 13.6163H96.3887C96.3832 12.8069 96.5553 12.1677 96.9076 11.6955ZM32.7792 11.1356C32.135 11.1356 31.5927 11.4303 31.1535 12.0219C30.7144 12.6125 30.4942 13.4645 30.4942 14.5764C30.4942 15.6878 30.713 16.5405 31.1535 17.1315C31.5925 17.7221 32.1348 18.0178 32.7792 18.0178C33.4233 18.0178 33.9629 17.7231 34.3958 17.1315C34.8348 16.541 35.0551 15.6814 35.0551 14.5553C35.0551 13.4578 34.8362 12.6131 34.3958 12.0219C33.9622 11.4313 33.424 11.1356 32.7792 11.1356ZM52.1693 12.0219C52.6085 11.4303 53.1508 11.1356 53.795 11.1356C54.4398 11.1356 54.978 11.4313 55.4116 12.0219C55.8521 12.6131 56.0709 13.4578 56.0709 14.5553C56.0709 15.6814 55.8507 16.541 55.4116 17.1315C54.9787 17.7231 54.4392 18.0178 53.795 18.0178C53.1507 18.0178 52.6084 17.7221 52.1693 17.1315C51.7289 16.5405 51.51 15.6878 51.51 14.5764C51.51 13.4645 51.7302 12.6125 52.1693 12.0219ZM80.7853 11.1356C80.1411 11.1356 79.5988 11.4303 79.1596 12.0219C78.7205 12.6125 78.5003 13.4645 78.5003 14.5764C78.5003 15.6878 78.7192 16.5405 79.1596 17.1315C79.5987 17.7221 80.141 18.0178 80.7853 18.0178C81.4295 18.0178 81.969 17.7231 82.4019 17.1315C82.841 16.541 83.0612 15.6814 83.0612 14.5553C83.0612 13.4578 82.8423 12.6131 82.4019 12.0219C81.9683 11.4313 81.4301 11.1356 80.7853 11.1356ZM12.1499 15.2518C12.8358 15.0766 13.3354 14.9244 13.652 14.7982L13.6529 15.3875C13.6529 16.0989 13.6254 16.5792 13.5566 16.8333C13.4616 17.2206 13.2662 17.549 12.9675 17.8158C12.5628 18.1685 12.1389 18.3436 11.6929 18.3436C11.2951 18.3436 10.9662 18.1929 10.7088 17.89C10.4459 17.5874 10.322 17.2289 10.322 16.8135C10.322 16.3911 10.4831 16.0431 10.8051 15.7682C11.0157 15.601 11.4644 15.4281 12.1499 15.2518Z" fill="black"/>
</svg>
