<svg width="120" height="29" viewBox="0 0 120 29" fill="none" xmlns="http://www.w3.org/2000/svg">
<path d="M107.375 0C107.956 0.00799165 108.538 0.0111883 109.117 0.0665971C109.46 0.109219 109.841 0.125202 110.123 0.337247C110.502 0.639864 110.654 1.10125 110.862 1.50829C111.07 1.89562 111.25 2.29573 111.412 2.70171C111.448 2.81785 111.501 2.98142 111.374 3.06613C111.212 3.1599 111.013 3.15777 110.829 3.17055C107.035 3.2249 103.249 3.64419 99.5397 4.39008C98.356 4.62663 97.194 4.9447 96.0252 5.23346C95.6605 5.30432 95.2484 5.43485 94.8987 5.25371C94.6009 5.0651 94.4991 4.7204 94.3722 4.42418C94.1625 3.86529 93.9722 3.30055 93.7801 2.73581C93.7087 2.51257 93.6538 2.24725 93.807 2.04107C94.011 1.77361 94.3654 1.67185 94.6849 1.57329C95.9292 1.19076 97.2152 0.94035 98.5041 0.726707C100.011 0.485359 101.528 0.303683 103.049 0.156103C103.64 0.108154 104.23 0.0282371 104.825 0.0319666C105.517 0.0213111 106.208 0.00639332 106.9 0L107.375 0Z" fill="black"/>
<path d="M85.8689 11.5911C86.3605 11.4616 86.9246 11.5303 87.3327 11.8276C88.0357 12.329 88.0557 13.4238 87.411 13.9742C86.8863 14.4116 86.0255 14.5309 85.4386 14.1297C84.7578 13.7083 84.5544 12.7456 85.0282 12.1222C85.2288 11.859 85.538 11.6784 85.8689 11.5911Z" fill="black"/>
<path fill-rule="evenodd" clip-rule="evenodd" d="M77.9254 11.849C77.0812 11.9497 76.2113 12.0552 75.446 12.426C75.4448 13.9797 75.4454 15.5333 75.4459 17.087C75.4467 19.5483 75.4475 22.0097 75.4419 24.471C75.7643 24.6234 76.1187 24.7033 76.4719 24.7672C77.299 24.9073 78.1454 24.934 78.9839 24.8898C79.6018 24.8509 80.2248 24.78 80.8135 24.5914C81.2833 24.422 81.7451 24.2195 82.1498 23.9361C82.8734 23.4438 83.3786 22.7091 83.6318 21.9137C83.9171 21.0128 83.9851 20.057 83.8885 19.1241C83.7833 18.2258 83.4952 17.2977 82.8214 16.6216C82.4356 16.2247 81.8852 16.01 81.3382 15.8816C80.6094 15.7079 79.8338 15.8203 79.1457 16.0798C78.9875 16.1351 78.8536 16.2272 78.7195 16.3193C78.6303 16.3806 78.541 16.442 78.4444 16.4927C78.2766 16.5816 78.1689 16.7255 78.0609 16.8698C77.9923 16.9615 77.9235 17.0534 77.8391 17.1315C77.8556 16.8113 77.8747 16.4908 77.8937 16.1702C77.9794 14.7304 78.0652 13.2874 77.9254 11.849ZM77.8894 20.9883C77.9374 20.3404 78.0014 19.6899 78.1586 19.0559C78.3833 18.3814 79.0051 17.7634 79.7927 17.708C80.3277 17.6584 80.8547 17.9621 81.073 18.415C81.3291 18.9541 81.4165 19.5509 81.4371 20.1364C81.4497 20.8721 81.3268 21.6479 80.8724 22.2669C80.6135 22.617 80.23 22.8855 79.7927 23.0086C79.1857 23.1865 78.5341 23.121 77.9249 22.9899C77.8208 22.3277 77.8528 21.6543 77.8894 20.9883Z" fill="black"/>
<path d="M46.0448 12.4254C46.7942 12.118 47.6121 11.8809 48.4391 11.9321C48.4654 16.1964 48.4963 20.4602 48.526 24.7241C47.6984 24.7246 46.8713 24.7246 46.0448 24.7241C46.0443 20.6243 46.0437 16.5252 46.0448 12.4254Z" fill="black"/>
<path fill-rule="evenodd" clip-rule="evenodd" d="M0 12.8377C0.335719 12.8252 0.672061 12.8092 1.00873 12.7932C2.46727 12.7237 3.93198 12.654 5.37896 12.8691C6.28488 13.0146 7.25711 13.2943 7.83381 14.0082C8.47396 14.7898 8.5757 15.8895 8.18304 16.7904C7.88925 17.4905 7.28226 18.0531 6.5558 18.3685C7.02391 18.5821 7.49145 18.8112 7.8904 19.1271C8.38137 19.6327 8.62943 20.3168 8.65629 20.9929C8.68887 21.8811 8.36422 22.7868 7.72864 23.4544C7.21596 23.9733 6.51579 24.3015 5.79448 24.489C4.76453 24.7501 3.68828 24.7772 2.62804 24.7692C2.25908 24.7643 1.89022 24.7563 1.52138 24.7484C1.01429 24.7374 0.507243 24.7265 0 24.7234V12.8377ZM2.43538 16.2192L2.43538 16.2193C2.42081 16.7144 2.40623 17.2095 2.39137 17.7045C3.0018 17.7967 3.63223 17.8154 4.24037 17.6982C4.6879 17.6108 5.13429 17.4371 5.45151 17.1212C5.86932 16.7003 5.94876 16.0503 5.73214 15.526C5.57268 15.1478 5.19202 14.891 4.78507 14.7748C4.03918 14.5574 3.23957 14.6192 2.47939 14.7343C2.46453 15.2292 2.44996 15.7242 2.43538 16.2192ZM2.39031 21.7925C2.39115 21.038 2.39198 20.2836 2.38687 19.5294C3.24478 19.4005 4.15757 19.4053 4.9749 19.7068C5.47216 19.8842 5.91455 20.271 6.00371 20.7766C6.07973 21.2567 6.00428 21.79 5.67049 22.1784C5.39557 22.4996 4.98004 22.6861 4.56109 22.7879C3.85178 22.9536 3.10704 22.9259 2.38973 22.8214C2.38955 22.4784 2.38993 22.1354 2.39031 21.7925Z" fill="black"/>
<path fill-rule="evenodd" clip-rule="evenodd" d="M14.5759 15.395C12.9806 15.1766 11.3528 15.4243 9.83364 15.8921C9.86644 16.2719 9.90076 16.6515 9.93506 17.0311C9.96052 17.3128 9.98598 17.5945 10.0108 17.8761C10.2708 17.8358 10.5147 17.7448 10.7586 17.6539C10.8944 17.6032 11.0302 17.5526 11.1688 17.5107C11.9158 17.2608 12.7246 17.1478 13.5145 17.2507C13.8923 17.3023 14.2907 17.4398 14.5124 17.7472C14.7741 18.1148 14.7803 18.5693 14.7862 18.9982C14.7867 19.0368 14.7872 19.0752 14.7879 19.1133C13.4842 19.0919 12.125 19.255 10.9848 19.8831C10.156 20.3296 9.46955 21.0643 9.26436 21.9503C9.0746 22.7143 9.28951 23.5705 9.88165 24.1379C10.3966 24.6483 11.1545 24.8806 11.8924 24.8976C12.8412 24.9903 13.7637 24.6035 14.4753 24.043C14.6617 23.8874 14.7974 23.6918 14.9326 23.4972C14.9728 23.4393 15.0129 23.3815 15.0543 23.3249C15.0406 23.557 15.026 23.7891 15.0113 24.0213C14.9965 24.2554 14.9817 24.4896 14.968 24.7239C15.7647 24.7245 16.5621 24.7245 17.3588 24.7239C17.3463 23.9248 17.335 23.1257 17.3238 22.3265C17.3057 21.0477 17.2877 19.7688 17.2645 18.4904C17.2428 17.6822 17.0725 16.8111 16.4557 16.2038C15.9682 15.7195 15.2646 15.4909 14.5759 15.395ZM11.8095 21.5539C12.049 21.2129 12.464 21.0349 12.8635 20.9076C13.4842 20.7254 14.1415 20.6844 14.7891 20.6817C14.7851 21.4015 14.5467 22.1586 13.9746 22.6647C13.5779 22.906 13.1121 23.0739 12.6337 23.076C12.2845 23.0733 11.8913 22.9476 11.7244 22.6402C11.5072 22.304 11.5712 21.8645 11.8095 21.5539Z" fill="black"/>
<path d="M25.7813 15.6551C26.3317 15.9407 26.7393 16.4495 26.8827 17.0206C26.9719 17.3787 27.0165 17.7447 27.053 18.1102C27.2348 20.3111 27.1165 22.52 27.0948 24.7241C26.2689 24.7246 25.4435 24.7246 24.6176 24.7241C24.617 23.2312 24.617 21.7389 24.6176 20.2461C24.6176 19.6062 24.6896 18.9599 24.5725 18.3249C24.509 18.002 24.3839 17.6557 24.0809 17.4618C23.7717 17.2641 23.3699 17.2838 23.0207 17.3595C22.4988 17.4719 22.069 17.8267 21.8135 18.2567C21.4529 18.8561 21.322 19.546 21.2483 20.2216C21.0894 21.7197 21.2471 23.2238 21.2523 24.7241C20.3961 24.7246 19.5399 24.7246 18.6837 24.7241C18.6831 21.8082 18.6831 18.8918 18.6831 15.9759C19.425 15.7382 20.196 15.5528 20.9859 15.563C20.9888 16.059 20.9819 16.555 20.9894 17.051C21.2854 16.7772 21.5003 16.4367 21.813 16.1773C22.3291 15.7212 23.0241 15.4873 23.7186 15.3994C24.4101 15.2833 25.1606 15.3253 25.7813 15.6551Z" fill="black"/>
<path fill-rule="evenodd" clip-rule="evenodd" d="M42.5973 15.7494C41.7463 15.3994 40.7912 15.3008 39.871 15.3877C38.7359 15.4985 37.6442 16.0025 36.8932 16.8075C36.217 17.5177 35.8152 18.4309 35.682 19.367C35.4928 20.4512 35.514 21.6014 35.9712 22.6286C36.2993 23.375 36.8903 24.0256 37.6556 24.4102C38.5775 24.8823 39.6687 24.9734 40.6992 24.8727C41.6857 24.7736 42.6533 24.4038 43.3758 23.7618C44.148 23.0858 44.6218 22.1577 44.8367 21.2003C45.0968 20.0692 45.0865 18.8598 44.6595 17.7638C44.3149 16.8613 43.5284 16.1367 42.5973 15.7494ZM38.745 18.214C39.037 17.8193 39.4777 17.5113 39.9847 17.408C40.5208 17.2918 41.1049 17.4303 41.525 17.7596C42.072 18.1789 42.3384 18.8353 42.4178 19.4762C42.5047 20.2802 42.4344 21.1326 42.0177 21.8561C41.7039 22.3958 41.1421 22.8556 40.4665 22.9169C39.9081 22.9952 39.3142 22.8124 38.933 22.4214C38.474 21.9669 38.2957 21.335 38.2391 20.7282C38.126 19.8736 38.2088 18.9423 38.745 18.214Z" fill="black"/>
<path d="M63.7063 15.7483C64.3841 15.3402 65.2295 15.2608 66.0165 15.3386C66.5509 15.3914 67.0716 15.6194 67.4157 16.011C67.6335 16.247 67.7981 16.5203 67.9484 16.7979C67.9987 16.9034 68.1267 16.9423 68.2187 17.0115C68.5828 16.5182 69.0046 16.0318 69.5802 15.743C70.0809 15.4883 70.6542 15.409 71.2137 15.353C71.7978 15.3045 72.4094 15.3924 72.9198 15.6727C73.4514 15.9609 73.8475 16.458 73.9829 17.0174C74.1218 17.5853 74.167 18.1687 74.2047 18.7484C74.3139 20.7388 74.2207 22.732 74.2012 24.7229C73.349 24.8061 72.4865 24.8061 71.6343 24.724C71.7126 23.2504 71.7383 21.7746 71.7338 20.2993C71.7252 19.6397 71.7201 18.9791 71.66 18.3216C71.6395 18.0009 71.4914 17.6674 71.1925 17.49C70.8421 17.2811 70.39 17.3072 70.0117 17.4282C69.703 17.5326 69.3932 17.686 69.2018 17.9428C68.8097 18.4303 68.545 19.0047 68.4244 19.603C68.3387 20.0084 68.361 20.4234 68.3587 20.8342C68.3581 22.131 68.3593 23.4272 68.3581 24.724C67.5328 24.7245 66.7069 24.7245 65.881 24.724C65.881 23.2488 65.8804 21.773 65.8816 20.2977C65.8821 19.6078 65.9627 18.9088 65.8136 18.2268C65.7421 17.9119 65.5946 17.5758 65.2763 17.4138C64.9231 17.2417 64.4915 17.2992 64.1354 17.4335C63.4341 17.7233 63.0043 18.3818 62.7923 19.0436C62.5808 19.6562 62.61 20.3057 62.5699 20.9402C62.5236 22.2008 62.5322 23.4635 62.6037 24.7235C61.7498 24.7975 60.8907 24.7304 60.0356 24.7187C60.0402 21.8316 60.0356 18.9439 60.0379 16.0568C60.801 15.7878 61.5977 15.5619 62.4213 15.5608C62.3916 16.0568 62.3625 16.5534 62.3333 17.0499C62.7643 16.5938 63.1473 16.0792 63.7063 15.7483Z" fill="black"/>
<path fill-rule="evenodd" clip-rule="evenodd" d="M93.162 15.3307C91.776 15.2588 90.4163 15.5715 89.0862 15.8949C89.144 16.555 89.2034 17.2146 89.2646 17.8747C89.5387 17.8172 89.7995 17.7219 90.0604 17.6265C90.2543 17.5556 90.4482 17.4847 90.6477 17.4293C91.2907 17.2284 91.9801 17.1581 92.6533 17.2375C93.0717 17.2838 93.5381 17.4042 93.7765 17.7575C94.015 18.12 94.0266 18.555 94.0376 18.9705C94.0388 19.0179 94.0401 19.065 94.0417 19.1118C93.7715 19.1401 93.4987 19.1596 93.2256 19.1791C92.4334 19.2357 91.638 19.2925 90.8929 19.5647C90.3877 19.7543 89.8847 19.9824 89.4909 20.3404C88.8176 20.928 88.4227 21.7821 88.4421 22.643C88.4284 23.5956 89.1508 24.5094 90.1373 24.7693C91.3439 25.0858 92.7025 24.812 93.6804 24.0858C93.9434 23.886 94.192 23.6473 94.3023 23.341C94.2904 23.624 94.2721 23.9068 94.2538 24.1896C94.2422 24.369 94.2305 24.5483 94.2206 24.7278C95.0173 24.7283 95.8135 24.7283 96.6103 24.7278C96.6125 23.7485 96.6091 22.7698 96.58 21.7911C96.5762 21.5736 96.5648 21.3563 96.5533 21.1389C96.5349 20.7893 96.5165 20.4397 96.5302 20.0894C96.5314 19.9251 96.5346 19.7606 96.5377 19.596C96.5495 18.9755 96.5614 18.3538 96.4697 17.7378C96.3988 17.2753 96.245 16.8118 95.941 16.4346C95.6592 16.0798 95.2528 15.8262 94.8178 15.6626C94.2909 15.4649 93.7256 15.3765 93.162 15.3307ZM90.8403 21.8898C90.9204 21.5451 91.2256 21.2915 91.5514 21.1386C92.2927 20.7225 93.1917 20.6164 94.0422 20.6804C94.0359 21.1503 93.9828 21.6367 93.7387 22.0565C93.4649 22.5179 93.03 22.9234 92.4744 23.0699C92.0555 23.1876 91.5737 23.1093 91.2359 22.8461C90.9369 22.6223 90.7506 22.2467 90.8403 21.8898Z" fill="black"/>
<path fill-rule="evenodd" clip-rule="evenodd" d="M55.4414 15.4485C54.8081 15.3669 54.1611 15.3387 53.5278 15.4362C52.2515 15.6147 51.0781 16.3275 50.3963 17.3499C49.6978 18.3596 49.4972 19.594 49.5441 20.7752C49.5938 21.7038 49.8167 22.6516 50.3608 23.4422C50.8718 24.1402 51.7206 24.5568 52.5796 24.7667C54.2503 25.1722 56.1713 24.8312 57.4407 23.7044C58.2695 22.9803 58.7553 21.9686 58.9359 20.9339C59.0508 20.2355 59.0617 19.5194 58.9479 18.8204C58.8062 17.9584 58.4284 17.1075 57.7568 16.4874C57.1401 15.9072 56.3005 15.5667 55.4414 15.4485ZM52.5716 18.3122C52.8648 17.862 53.3723 17.5525 53.9262 17.4576C54.3983 17.3441 54.931 17.3639 55.3499 17.6164C55.9015 17.9339 56.2016 18.5157 56.3427 19.0869C56.5399 19.9228 56.4691 20.821 56.1044 21.609C55.8723 22.1002 55.4791 22.56 54.9241 22.7492C54.3108 22.9463 53.5615 22.9442 53.0426 22.5392C52.4378 22.0709 52.2275 21.3096 52.1646 20.6085C52.072 19.8317 52.1172 18.9926 52.5716 18.3122Z" fill="black"/>
<path d="M31.0342 15.6711C32.3059 15.2566 33.6817 15.4308 34.9774 15.6423C34.8905 16.3301 34.8013 17.0174 34.7122 17.7052C34.0006 17.6179 33.3216 17.2481 32.5877 17.3829C31.9344 17.514 31.3354 17.9205 31.0462 18.4884C30.6101 19.3222 30.5546 20.3031 30.7804 21.1981C30.9302 21.7431 31.2148 22.3137 31.7618 22.6014C32.3476 22.8641 33.0318 22.8732 33.6611 22.7661C34.0412 22.7064 34.4024 22.5055 34.7962 22.5556C34.8654 23.195 34.9237 23.8354 34.9774 24.4763C33.8588 24.74 32.71 25.0256 31.5457 24.9052C30.6735 24.8114 29.7905 24.4992 29.1886 23.8838C28.4593 23.1486 28.1066 22.1534 27.9975 21.1725C27.862 19.8624 28.1232 18.4948 28.8525 17.3584C29.3452 16.5859 30.118 15.9641 31.0342 15.6711Z" fill="black"/>
<path d="M84.9208 15.5613C85.8045 15.4862 86.6927 15.4745 87.5797 15.4792C87.5803 18.5608 87.5803 21.6424 87.5797 24.724C86.6932 24.7245 85.8073 24.7245 84.9208 24.724C84.9203 21.6696 84.9203 18.6157 84.9208 15.5613Z" fill="black"/>
<path d="M110.492 3.84646C111.43 3.79371 112.372 3.76974 113.312 3.79958C113.679 3.82621 114.095 3.83527 114.385 4.07768C114.676 4.35047 114.751 4.74632 114.898 5.09209C115.104 5.69466 115.416 6.25887 115.647 6.85292C115.719 7.04738 115.773 7.30897 115.573 7.45442C115.263 7.66114 114.869 7.69577 114.508 7.76876C113.232 7.97228 111.954 8.15183 110.684 8.37985C108.19 8.83005 105.717 9.37348 103.251 9.93822C100.736 10.5328 98.2323 11.1833 95.8009 12.0315C95.3202 12.1951 94.8435 12.3895 94.3314 12.4481C94.0771 12.4774 93.7902 12.4412 93.6084 12.2574C93.3798 12.0272 93.2918 11.7129 93.2015 11.4188C92.9951 10.6649 92.7596 9.91691 92.5825 9.15611C92.5116 8.80821 92.4287 8.44379 92.527 8.09269C92.6047 7.80978 92.8499 7.6004 93.1157 7.46348C93.6598 7.18377 94.2583 7.01541 94.8424 6.82415C96.0278 6.43256 97.2498 6.14646 98.4375 5.76073C100.967 5.1459 103.531 4.65202 106.116 4.2876C107.567 4.08727 109.026 3.92904 110.492 3.84646Z" fill="black"/>
<path d="M114.414 8.6905C114.74 8.83541 114.887 9.16733 115.025 9.4577C115.325 10.1706 115.56 10.9053 115.825 11.6298C115.929 11.957 116.07 12.2921 116.028 12.6389C115.961 12.9932 115.562 13.144 115.251 13.2772C114.334 13.6171 113.403 13.9208 112.485 14.2596C110.024 15.1456 107.562 16.0311 105.101 16.9171C104.568 17.1068 104.038 17.3209 103.471 17.4035C103.158 17.4461 102.81 17.4318 102.55 17.2453C102.264 17.0396 102.129 16.7141 102.007 16.4094C101.793 15.8361 101.639 15.2447 101.415 14.6746C101.096 14.0215 100.837 13.3443 100.583 12.6671C100.472 12.3746 100.447 12.0235 100.641 11.7561C100.826 11.5025 101.144 11.3762 101.448 11.2899C103.088 10.9095 104.718 10.4913 106.361 10.1199C107.777 9.80027 109.188 9.46089 110.619 9.20356C111.526 9.03148 112.43 8.83968 113.341 8.68144C113.692 8.63349 114.073 8.55624 114.414 8.6905Z" fill="black"/>
</svg>
