<svg width="82" height="29" viewBox="0 0 82 29" fill="none" xmlns="http://www.w3.org/2000/svg">
<path d="M80.5482 0.506973C81.0225 0.506973 81.4156 0.853235 81.4156 1.29843V5.15678C81.4156 5.58961 81.0361 5.94824 80.5482 5.94824H75.6554C75.3708 5.94824 75.1811 6.12137 75.1811 6.38106V24.6835C75.1811 25.1163 74.8016 25.4749 74.3137 25.4749H70.0851C69.6107 25.4749 69.2176 25.1287 69.2176 24.6835V6.46763C69.2176 6.20793 69.0279 6.0348 68.7433 6.0348H63.8506C63.3762 6.0348 62.9832 5.68854 62.9832 5.24335V1.385C62.9832 0.952167 63.3626 0.593539 63.8506 0.593539H80.5482" fill="black"/>
<path fill-rule="evenodd" clip-rule="evenodd" d="M15.9252 12.4159C15.7354 12.6014 15.7354 12.8611 15.9252 13.0342C17.4702 14.172 18.2292 16.1011 18.1343 18.0303C18.1343 22.8409 14.868 25.9078 9.69067 25.9078H2.68364C1.247 25.9078 0.0949707 24.7701 0.0949707 23.4592V2.86898C0.0949707 1.47156 1.247 0.42041 2.68364 0.42041H9.78554C14.5834 0.42041 17.9446 3.747 17.9446 7.69192C17.9446 9.43559 17.3618 11.1051 15.9252 12.4159ZM5.55693 5.84929C5.55693 5.67616 5.74668 5.50303 5.93642 5.50303H9.67712C11.0189 5.50303 12.2658 6.64075 12.2658 7.86503C12.2658 9.08932 11.0189 10.3136 9.67712 10.3136H5.94998C5.76023 10.3136 5.57049 10.1405 5.57049 9.96734V5.84929H5.55693ZM9.88043 20.7386H5.94999C5.76024 20.7386 5.5705 20.5654 5.5705 20.3923V15.4828C5.5705 15.3097 5.76024 15.1365 5.94999 15.1365H9.88043C11.5068 15.1365 12.6588 16.534 12.6588 17.9437C12.6588 19.3535 11.6152 20.7386 9.88043 20.7386Z" fill="black"/>
<path d="M37.4342 20.2192H28.3129C28.0282 20.2192 27.8385 20.0461 27.8385 19.7864V16.2867C27.8385 16.027 28.0282 15.8539 28.3129 15.8539H36.9463C37.4206 15.8539 37.9086 15.5076 37.9086 14.9758V11.0309C37.9086 10.5981 37.5291 10.1529 36.9463 10.1529H28.3129C28.0282 10.1529 27.8385 9.97977 27.8385 9.72007V6.22035C27.8385 5.96065 28.0282 5.78752 28.3129 5.78752H37.2444C37.7188 5.78752 38.2067 5.44126 38.2067 4.9095V0.964585C38.2067 0.531757 37.8272 0.0865631 37.2444 0.0865631H24.0978C22.756 0.173129 21.604 1.22428 21.604 2.53513V23.0264C21.604 24.3373 22.8509 25.475 24.2875 25.475H37.3393C37.8137 25.475 38.3016 25.1287 38.3016 24.597V20.6521C38.3965 20.5655 38.0034 20.2192 37.4342 20.2192Z" fill="black"/>
<path fill-rule="evenodd" clip-rule="evenodd" d="M56.1512 2.26302L62.6838 24.7701C62.8736 25.3018 62.3992 25.8212 61.8164 25.9078H57.3981C57.005 25.9078 56.6255 25.6357 56.5307 25.2895L55.3786 21.6166C55.2838 21.3569 55.094 21.1838 54.8094 21.1838H49.6321C49.3474 21.1838 49.1577 21.3569 49.0628 21.6166L48.0057 25.2895C47.9108 25.6481 47.5178 25.9078 47.1383 25.9078H42.7199C42.1371 25.9078 41.6628 25.376 41.8525 24.8566L48.3852 2.26302C48.6698 1.21186 49.7269 0.506973 50.879 0.506973H53.6574C54.8094 0.506973 55.8666 1.21186 56.1512 2.26302ZM50.6757 15.8415H53.942C54.1318 15.8415 54.4299 15.5694 54.2402 15.3221L52.4105 6.91286C52.4105 6.82629 52.3156 6.73973 52.2208 6.73973C52.1259 6.73973 52.031 6.82629 52.031 6.91286L50.2013 15.3221C50.2013 15.5818 50.3911 15.8415 50.6757 15.8415Z" fill="black"/>
</svg>
