<svg width="86" height="29" viewBox="0 0 86 29" fill="none" xmlns="http://www.w3.org/2000/svg">
<path fill-rule="evenodd" clip-rule="evenodd" d="M43.0229 20.8468H45.653C49.9713 20.8468 52.3743 18.7621 52.3743 14.2019C52.3743 10.0976 49.582 7.65457 45.9453 7.65457H42.9902V20.8468H43.0229ZM40.5227 5.43958H45.718C50.9454 5.43958 55.1019 8.66437 55.1019 14.1041C55.1019 20.0324 51.5302 23.0618 45.718 23.0618H40.5227V5.43958Z" fill="black"/>
<path fill-rule="evenodd" clip-rule="evenodd" d="M58.4139 23.0944H60.7846V10.1953H58.4139V23.0944ZM58.2839 7.29633H60.9464V4.62532H58.2839V7.29633Z" fill="black"/>
<path fill-rule="evenodd" clip-rule="evenodd" d="M67.7328 20.8468H70.3632C74.6815 20.8468 77.0842 18.7621 77.0842 14.2019C77.0842 10.0976 74.2918 7.65457 70.6551 7.65457H67.7003V20.8468H67.7328ZM65.2002 5.43958H70.3954C75.6231 5.43958 79.7796 8.66437 79.7796 14.1041C79.7796 20.0324 76.2079 23.0618 70.3954 23.0618H65.2002V5.43958Z" fill="black"/>
<path fill-rule="evenodd" clip-rule="evenodd" d="M83.1236 23.0944H85.494V10.1953H83.1236V23.0944ZM82.9617 7.29633H85.6242V4.62532H82.9617V7.29633Z" fill="black"/>
<path fill-rule="evenodd" clip-rule="evenodd" d="M27.6646 11.1262V6.08973H34.0937V11.6529C33.9637 20.7052 26.2035 27.8155 17.1443 28.013C7.92274 27.9502 0.0973697 20.7711 0 11.6529V1.67877C0 0.658306 0.649798 0 1.6235 0H27.6646V6.08973H7.24085C6.72101 6.08973 6.39611 6.41863 6.39611 6.94559V11.0274C6.45609 16.9197 11.1692 21.7915 17.1438 21.8574C22.989 21.6595 27.5997 16.9527 27.6646 11.1262Z" fill="black"/>
</svg>
