<svg width="127" height="30" viewBox="0 0 127 30" fill="none" xmlns="http://www.w3.org/2000/svg">
<path fill-rule="evenodd" clip-rule="evenodd" d="M88.692 0.729614C88.0686 0.729614 87.8472 0.8495 87.8472 1.5204C87.8472 2.26323 88.0962 2.38358 88.692 2.38358C89.2753 2.38358 89.5192 2.26369 89.5192 1.5204C89.5192 0.839356 89.2748 0.729614 88.692 0.729614ZM43.0039 3.95412C41.9895 3.95412 40.6795 4.1985 39.6503 4.5766C39.1094 4.1464 38.3417 3.95412 37.1705 3.95412C36.0076 3.95412 34.533 4.25522 33.585 4.68681L33.5356 4.70894V13.5252H34.8816V5.53108C35.457 5.35402 36.2501 5.2452 36.9713 5.2452C38.7996 5.2452 39.369 5.69569 39.369 8.51255V13.5247H40.715V8.27739C40.715 7.20534 40.5951 6.30942 40.3576 5.61224C41.1784 5.34249 42.1435 5.2452 42.7867 5.2452C44.5988 5.2452 45.2024 5.71737 45.2024 8.51255V13.5247H46.5483V8.27739C46.5483 4.96393 45.7202 3.95366 43.0039 3.95366V3.95412ZM50.3769 7.83143L50.3769 7.83097H55.3793C55.2595 5.62415 54.6637 5.2276 53.0761 5.2276C51.1701 5.2276 50.5277 5.83846 50.3769 7.83097H50.3764L50.3769 7.83143ZM48.8801 8.821C48.8801 5.40978 50.1348 3.95409 53.0761 3.95409C55.8939 3.95409 56.8927 5.27053 56.8927 8.98423V9.06815H50.3533C50.3888 11.9878 51.3516 12.5052 53.3482 12.5052C53.9744 12.5052 55.1677 12.3106 55.9456 12.0215L56.0341 11.9883L56.3476 13.2443L56.2716 13.2674C55.3245 13.5588 54.0214 13.7783 53.2394 13.7783C50.1426 13.7783 48.8801 12.342 48.8801 8.821ZM62.7864 3.95412C61.7328 3.95412 60.1134 4.20588 59.0561 4.68681L59.0063 4.70894V13.5252H60.3523V5.53154C61.0177 5.33373 61.7047 5.24566 62.5688 5.24566C64.5216 5.24566 65.1297 5.69569 65.1297 8.51255V13.5247H66.4762V8.27739C66.4762 5.00451 65.5798 3.95366 62.7869 3.95366L62.7864 3.95412ZM70.2074 6.77417C70.2074 7.62583 70.8253 7.99839 72.4114 8.10306C74.841 8.26998 75.8775 9.0806 75.8775 10.8139C75.8775 12.9474 74.8636 13.7783 72.2611 13.7783C71.3403 13.7783 69.845 13.5938 68.9366 13.2849L68.8577 13.2582L69.2755 11.9846L69.3608 12.0238C69.975 12.3041 71.303 12.5412 72.2607 12.5412C73.7256 12.5412 74.4232 12.2991 74.4232 10.9227C74.4232 10.0591 74.0774 9.56245 72.2537 9.41213C69.1773 9.18527 68.7531 8.06249 68.7531 6.88253C68.7531 4.83018 69.8616 3.95409 72.4603 3.95409C73.3249 3.95409 74.4006 4.12285 75.4902 4.42856L75.5769 4.453L75.119 5.74269L75.0379 5.71088C74.2332 5.39687 73.2695 5.20966 72.4603 5.20966C70.9023 5.20966 70.2074 5.4356 70.2074 6.77417ZM81.6814 12.5411C79.7946 12.5411 79.3196 12.3036 79.3196 10.5238C79.3196 8.94822 79.8232 8.72413 81.6814 8.72413C82.6064 8.72413 83.4479 8.80113 84.0611 8.94177V12.1492C83.3335 12.4028 82.4911 12.5411 81.6814 12.5411ZM78.4519 4.41057C79.5253 4.10763 80.5568 3.95409 81.5182 3.95409C84.3894 3.95409 85.4071 4.90534 85.4071 7.58894V13.0239L85.3573 13.0461C84.4093 13.4772 82.8752 13.7783 81.627 13.7783C78.823 13.7783 77.8294 12.9506 77.8294 10.6147C77.8294 8.0339 79.3109 7.50502 81.5366 7.50502C82.4145 7.50502 83.1085 7.57879 84.0607 7.77568C84.0445 5.72194 83.5373 5.24563 81.4458 5.24563C80.4521 5.24563 79.4829 5.40563 78.8516 5.67399L78.7663 5.70995L78.3689 4.43363L78.4519 4.41057ZM86.2647 15.9473C87.459 15.9473 87.992 15.6587 87.992 13.948V4.20819H89.338V13.948C89.338 16.8082 87.8606 17.2024 86.2647 17.2024H86.1803V15.9473H86.2647ZM93.1845 7.83097C93.3358 5.83846 93.9777 5.2276 95.8842 5.2276C97.4713 5.2276 98.067 5.62415 98.1869 7.83097H93.1845ZM91.6882 8.821C91.6882 5.40978 92.9428 3.95409 95.8842 3.95409C98.7015 3.95409 99.7003 5.27053 99.7003 8.98423V9.06815H93.1609C93.1969 11.9878 94.1597 12.5052 96.1558 12.5052C96.7824 12.5052 97.9758 12.3106 98.7536 12.0215L98.8417 11.9883L99.1553 13.2443L99.0792 13.2674C98.1325 13.5588 96.829 13.7783 96.047 13.7783C92.9507 13.7783 91.6882 12.342 91.6882 8.821ZM105.648 3.95413C104.489 3.95413 103.604 4.32301 103.16 4.732V4.20819H101.814V13.5247H103.16V6.44822C103.16 5.61455 104.501 5.31852 105.648 5.31852C105.997 5.31852 106.329 5.35726 106.58 5.39045L106.675 5.40337V4.01822L106.601 4.009C106.285 3.97126 105.967 3.95279 105.648 3.95367V3.95413ZM109.265 8.85745C109.265 11.701 109.884 12.5232 112.025 12.5232C114.181 12.5232 114.804 11.701 114.804 8.85745C114.804 5.73672 114.11 5.20922 112.025 5.20922C109.664 5.20922 109.265 6.12036 109.265 8.85745ZM112.025 3.95409C108.94 3.95421 107.793 5.27346 107.793 8.821C107.793 12.4351 108.94 13.7783 112.025 13.7783C115.124 13.7783 116.276 12.4351 116.276 8.82146C116.276 5.27329 115.124 3.95409 112.025 3.95409ZM119.791 6.77417C119.791 7.62583 120.409 7.99839 121.995 8.10306C124.424 8.26998 125.461 9.0806 125.461 10.8139C125.461 12.9474 124.447 13.7783 121.844 13.7783C120.924 13.7783 119.428 13.5938 118.52 13.2849L118.441 13.2582L118.859 11.9846L118.944 12.0238C119.558 12.3041 120.886 12.5412 121.844 12.5412C123.309 12.5412 124.006 12.2991 124.006 10.9227C124.006 10.0591 123.661 9.56245 121.837 9.41213C118.76 9.18527 118.336 8.06249 118.336 6.88253C118.336 4.83018 119.445 3.95409 122.044 3.95409C122.908 3.95409 123.984 4.12285 125.073 4.42856L125.16 4.453L124.702 5.74269L124.621 5.71088C123.817 5.39687 122.853 5.20966 122.043 5.20966C120.485 5.20966 119.791 5.4356 119.791 6.77417Z" fill="black"/>
<path d="M39.6503 4.5766L39.4028 4.8877L39.5777 5.02676L39.7874 4.94972L39.6503 4.5766ZM43.0039 3.95412V4.35162H43.4014V3.95412H43.0039ZM33.585 4.68681L33.7477 5.04949L33.7497 5.04858L33.585 4.68681ZM33.5356 4.70894L33.3729 4.34626L33.1381 4.45159V4.70894H33.5356ZM33.5356 13.5252H33.1381V13.9227H33.5356V13.5252ZM34.8816 13.5252V13.9227H35.2791V13.5252H34.8816ZM34.8816 5.53108L34.7647 5.15116L34.4841 5.2375V5.53108H34.8816ZM39.369 13.5247H38.9715V13.9222H39.369V13.5247ZM40.715 13.5247V13.9222H41.1125V13.5247H40.715ZM40.3576 5.61224L40.2335 5.23461L39.8518 5.36006L39.9813 5.7404L40.3576 5.61224ZM45.2024 13.5247H44.8049V13.9222H45.2024V13.5247ZM46.5483 13.5247V13.9222H46.9458V13.5247H46.5483ZM43.0039 3.95366V3.55616H42.6064V3.95366H43.0039ZM50.3769 7.83143L50.0959 8.11265L50.7089 8.72502L50.7733 7.86095L50.3769 7.83143ZM55.3793 7.83097V8.22847H55.799L55.7763 7.80941L55.3793 7.83097ZM50.3764 7.83097V7.43347H49.4161L50.0955 8.11219L50.3764 7.83097ZM56.8927 9.06815V9.46565H57.2902V9.06815H56.8927ZM50.3533 9.06815V8.67065H49.951L49.9559 9.07298L50.3533 9.06815ZM55.9456 12.0215L56.084 12.3941L56.0851 12.3937L55.9456 12.0215ZM56.0341 11.9883L56.4198 11.892L56.3118 11.4596L55.8945 11.6161L56.0341 11.9883ZM56.3476 13.2443L56.4629 13.6247L56.8249 13.5151L56.7333 13.1481L56.3476 13.2443ZM56.2716 13.2674L56.1563 12.887L56.1547 12.8875L56.2716 13.2674ZM59.0561 4.68681L59.2176 5.05006L59.2207 5.04864L59.0561 4.68681ZM62.7864 3.95412V4.35162H62.9515L63.0679 4.23476L62.7864 3.95412ZM59.0063 4.70894L58.8449 4.3457L58.6088 4.45062V4.70894H59.0063ZM59.0063 13.5252H58.6088V13.9227H59.0063V13.5252ZM60.3523 13.5252V13.9227H60.7498V13.5252H60.3523ZM60.3523 5.53154L60.239 5.15053L59.9548 5.23502V5.53154H60.3523ZM65.1297 13.5247H64.7323V13.9222H65.1297V13.5247ZM66.4762 13.5247V13.9222H66.8737V13.5247H66.4762ZM62.7869 3.95366V3.55616H62.6219L62.5054 3.67302L62.7869 3.95366ZM72.4114 8.10306L72.4387 7.7065L72.4376 7.70643L72.4114 8.10306ZM68.9366 13.2849L69.0646 12.9086L69.0643 12.9085L68.9366 13.2849ZM68.8577 13.2582L68.48 13.1343L68.3574 13.5082L68.7301 13.6346L68.8577 13.2582ZM69.2755 11.9846L69.4415 11.6234L69.0366 11.4374L68.8978 11.8607L69.2755 11.9846ZM69.3608 12.0238L69.1948 12.385L69.1957 12.3854L69.3608 12.0238ZM72.2537 9.41213L72.2864 9.01595L72.283 9.0157L72.2537 9.41213ZM75.4902 4.42856L75.5981 4.04597L75.5976 4.04584L75.4902 4.42856ZM75.5769 4.453L75.9515 4.58599L76.0936 4.18567L75.6847 4.07041L75.5769 4.453ZM75.119 5.74269L74.9739 6.11277L75.3562 6.26265L75.4936 5.87568L75.119 5.74269ZM75.0379 5.71088L75.183 5.3408L75.1824 5.34058L75.0379 5.71088ZM84.0611 8.94177H84.4586V8.62511L84.15 8.55433L84.0611 8.94177ZM84.0611 12.1492L84.192 12.5245L84.4586 12.4316V12.1492H84.0611ZM78.4519 4.41057L78.5582 4.79358L78.5598 4.79313L78.4519 4.41057ZM85.4071 13.0239L85.5685 13.3872L85.8046 13.2822V13.0239H85.4071ZM85.3573 13.0461L85.1958 12.6828L85.1927 12.6842L85.3573 13.0461ZM84.0607 7.77568L83.9802 8.16495L84.462 8.26458L84.4582 7.77256L84.0607 7.77568ZM78.8516 5.67399L79.0061 6.04027L79.0071 6.0398L78.8516 5.67399ZM78.7663 5.70995L78.3868 5.82814L78.5171 6.24643L78.9207 6.07623L78.7663 5.70995ZM78.3689 4.43363L78.2625 4.05063L77.8674 4.16036L77.9893 4.55182L78.3689 4.43363ZM87.992 4.20819V3.81069H87.5945V4.20819H87.992ZM89.338 4.20819H89.7355V3.81069H89.338V4.20819ZM86.1803 17.2024H85.7828V17.5999H86.1803V17.2024ZM86.1803 15.9473V15.5498H85.7828V15.9473H86.1803ZM93.1845 7.83097L92.7881 7.80087L92.7557 8.22847H93.1845V7.83097ZM98.1869 7.83097V8.22847H98.6066L98.5838 7.80941L98.1869 7.83097ZM99.7003 9.06815V9.46565H100.098V9.06815H99.7003ZM93.1609 9.06815V8.67065H92.7585L92.7635 9.07304L93.1609 9.06815ZM98.7536 12.0215L98.8921 12.3941L98.8939 12.3934L98.7536 12.0215ZM98.8417 11.9883L99.2274 11.892L99.1192 11.4589L98.7015 11.6163L98.8417 11.9883ZM99.1553 13.2443L99.2705 13.6248L99.6325 13.5151L99.5409 13.1481L99.1553 13.2443ZM99.0792 13.2674L98.9639 12.887L98.9622 12.8875L99.0792 13.2674ZM103.16 4.732H102.763V5.63856L103.43 5.02438L103.16 4.732ZM105.648 3.95413V4.35163H106.046V3.95413H105.648ZM103.16 4.20819H103.558V3.81069H103.16V4.20819ZM101.814 4.20819V3.81069H101.417V4.20819H101.814ZM101.814 13.5247H101.417V13.9222H101.814V13.5247ZM103.16 13.5247V13.9222H103.558V13.5247H103.16ZM106.58 5.39045L106.633 4.99657L106.632 4.99639L106.58 5.39045ZM106.675 5.40337L106.621 5.79724L107.072 5.85855V5.40337H106.675ZM106.675 4.01822H107.072V3.66732L106.724 3.62379L106.675 4.01822ZM106.601 4.009L106.65 3.61456L106.648 3.6143L106.601 4.009ZM105.648 3.95367L105.647 3.55617L105.251 3.55726V3.95367H105.648ZM112.025 3.95409V3.55659H112.025L112.025 3.95409ZM121.995 8.10306L122.022 7.7065L122.021 7.70643L121.995 8.10306ZM118.52 13.2849L118.391 13.6611L118.392 13.6613L118.52 13.2849ZM118.441 13.2582L118.063 13.1344L117.941 13.5076L118.313 13.6344L118.441 13.2582ZM118.859 11.9846L119.024 11.6231L118.619 11.4382L118.481 11.8608L118.859 11.9846ZM118.944 12.0238L118.779 12.3853L118.779 12.3854L118.944 12.0238ZM121.837 9.41213L121.87 9.01595L121.866 9.0157L121.837 9.41213ZM125.073 4.42856L125.181 4.04597L125.181 4.04584L125.073 4.42856ZM125.16 4.453L125.535 4.58586L125.676 4.18564L125.268 4.07041L125.16 4.453ZM124.702 5.74269L124.557 6.11277L124.94 6.2627L125.077 5.87556L124.702 5.74269ZM124.621 5.71088L124.766 5.3408L124.766 5.34058L124.621 5.71088ZM88.2447 1.5204C88.2447 1.3701 88.2577 1.27873 88.2735 1.22409C88.2808 1.1986 88.2876 1.18559 88.2908 1.18023C88.2924 1.17757 88.2934 1.17636 88.2936 1.17606C88.2939 1.17579 88.2939 1.17574 88.294 1.17566C88.2941 1.17556 88.295 1.17484 88.297 1.17359C88.2991 1.1723 88.3029 1.17022 88.3088 1.16763C88.3211 1.1623 88.3419 1.15523 88.3751 1.14858C88.4448 1.13461 88.5445 1.12711 88.692 1.12711V0.332114C88.3918 0.332114 88.0354 0.350988 87.7776 0.571182C87.5002 0.808149 87.4497 1.17072 87.4497 1.5204H88.2447ZM88.692 1.98608C88.3863 1.98608 88.3236 1.94542 88.312 1.93498C88.3111 1.93415 88.2447 1.876 88.2447 1.5204H87.4497C87.4497 1.90763 87.5079 2.28107 87.7804 2.52612C88.0422 2.76157 88.4019 2.78108 88.692 2.78108V1.98608ZM89.1217 1.5204C89.1217 1.87786 89.0561 1.93738 89.0555 1.93787C89.0472 1.94552 88.9908 1.98608 88.692 1.98608V2.78108C88.9765 2.78108 89.3337 2.76169 89.5931 2.52358C89.8603 2.27831 89.9167 1.90623 89.9167 1.5204H89.1217ZM88.692 1.12711C88.8295 1.12711 88.9231 1.134 88.9893 1.14722C89.0208 1.15349 89.0407 1.16022 89.0528 1.1654C89.0641 1.17028 89.068 1.17359 89.0684 1.17393C89.0685 1.17402 89.07 1.17506 89.0731 1.18012C89.0767 1.18586 89.0837 1.19908 89.0914 1.2244C89.1077 1.27842 89.1217 1.36981 89.1217 1.5204H89.9167C89.9167 1.15845 89.8576 0.798704 89.5799 0.565302C89.3225 0.348987 88.9733 0.332114 88.692 0.332114V1.12711ZM39.7874 4.94972C40.7766 4.58628 42.0403 4.35162 43.0039 4.35162V3.55662C41.9386 3.55662 40.5823 3.81073 39.5132 4.20349L39.7874 4.94972ZM37.1705 4.35162C38.3089 4.35162 38.9668 4.54084 39.4028 4.8877L39.8977 4.26551C39.2521 3.75196 38.3745 3.55662 37.1705 3.55662V4.35162ZM33.7497 5.04858C34.6402 4.64317 36.0577 4.35162 37.1705 4.35162V3.55662C35.9575 3.55662 34.4258 3.86726 33.4203 4.32503L33.7497 5.04858ZM33.6983 5.07162L33.7477 5.04949L33.4223 4.32413L33.3729 4.34626L33.6983 5.07162ZM33.9331 13.5252V4.70894H33.1381V13.5252H33.9331ZM34.8816 13.1277H33.5356V13.9227H34.8816V13.1277ZM34.4841 5.53108V13.5252H35.2791V5.53108H34.4841ZM36.9713 4.8477C36.2179 4.8477 35.3845 4.96046 34.7647 5.15116L34.9985 5.911C35.5296 5.74758 36.2824 5.6427 36.9713 5.6427V4.8477ZM39.7665 8.51255C39.7665 7.79867 39.7308 7.21423 39.6422 6.74062C39.5537 6.26721 39.4076 5.87671 39.1664 5.5746C38.6673 4.94915 37.8832 4.8477 36.9713 4.8477V5.6427C37.8877 5.6427 38.3024 5.7665 38.5451 6.07051C38.6749 6.23313 38.7853 6.48341 38.8607 6.88672C38.9361 7.28982 38.9715 7.81801 38.9715 8.51255H39.7665ZM39.7665 13.5247V8.51255H38.9715V13.5247H39.7665ZM40.715 13.1272H39.369V13.9222H40.715V13.1272ZM40.3175 8.27739V13.5247H41.1125V8.27739H40.3175ZM39.9813 5.7404C40.1999 6.38206 40.3175 7.23077 40.3175 8.27739H41.1125C41.1125 7.1799 40.9903 6.23678 40.7339 5.48407L39.9813 5.7404ZM42.7867 4.8477C42.1144 4.8477 41.1051 4.94815 40.2335 5.23461L40.4817 5.98986C41.2516 5.73683 42.1725 5.6427 42.7867 5.6427V4.8477ZM45.5999 8.51255C45.5999 7.80305 45.5619 7.22054 45.47 6.74706C45.378 6.27345 45.2274 5.88321 44.9834 5.58097C44.4791 4.95637 43.6953 4.8477 42.7867 4.8477V5.6427C43.6902 5.6427 44.1143 5.77011 44.3648 6.08039C44.4982 6.24559 44.6117 6.49749 44.6896 6.89856C44.7674 7.29976 44.8049 7.82447 44.8049 8.51255H45.5999ZM45.5999 13.5247V8.51255H44.8049V13.5247H45.5999ZM46.5483 13.1272H45.2024V13.9222H46.5483V13.1272ZM46.1508 8.27739V13.5247H46.9458V8.27739H46.1508ZM43.0039 4.35116C44.332 4.35116 45.0588 4.60217 45.4873 5.12498C45.9373 5.67387 46.1508 6.6245 46.1508 8.27739H46.9458C46.9458 6.61682 46.7453 5.40558 46.1021 4.62097C45.4376 3.81028 44.392 3.55616 43.0039 3.55616V4.35116ZM43.4014 3.95412V3.95366H42.6064V3.95412H43.4014ZM49.9805 7.80146L49.9805 7.80192L50.7733 7.86095L50.7733 7.86049L49.9805 7.80146ZM55.3793 7.43347H50.3769V8.22847H55.3793V7.43347ZM53.0761 5.6251C53.8646 5.6251 54.2544 5.73179 54.4923 5.97795C54.7442 6.23866 54.9227 6.75274 54.9824 7.85253L55.7763 7.80941C55.7161 6.70238 55.5368 5.91477 55.064 5.4255C54.5771 4.92169 53.8752 4.8301 53.0761 4.8301V5.6251ZM50.7733 7.86098C50.8473 6.88242 51.0384 6.36246 51.3439 6.06858C51.6451 5.77885 52.146 5.6251 53.0761 5.6251V4.8301C52.1002 4.8301 51.327 4.98178 50.7928 5.49561C50.2629 6.00529 50.0573 6.78702 49.9805 7.80096L50.7733 7.86098ZM50.3764 8.22847H50.3769V7.43347H50.3764V8.22847ZM50.6578 7.55021L50.6573 7.54975L50.0955 8.11219L50.0959 8.11265L50.6578 7.55021ZM53.0761 3.55659C51.545 3.55659 50.3607 3.9363 49.5741 4.84879C48.7996 5.74709 48.4826 7.08148 48.4826 8.821H49.2776C49.2776 7.14929 49.5879 6.05023 50.1762 5.36788C50.7522 4.69972 51.6659 4.35159 53.0761 4.35159V3.55659ZM57.2902 8.98423C57.2902 7.11536 57.0441 5.74091 56.3577 4.83626C55.6468 3.89927 54.54 3.55659 53.0761 3.55659V4.35159C54.4301 4.35159 55.2315 4.66712 55.7244 5.31678C56.2418 5.99877 56.4952 7.13939 56.4952 8.98423H57.2902ZM57.2902 9.06815V8.98423H56.4952V9.06815H57.2902ZM50.3533 9.46565H56.8927V8.67065H50.3533V9.46565ZM53.3482 12.1077C52.3583 12.1077 51.7683 11.972 51.3963 11.6004C51.0192 11.2235 50.7683 10.5056 50.7508 9.06331L49.9559 9.07298C49.9738 10.5504 50.2221 11.551 50.8344 12.1627C51.4518 12.7797 52.3415 12.9027 53.3482 12.9027V12.1077ZM55.8071 11.6489C55.0739 11.9214 53.9275 12.1077 53.3482 12.1077V12.9027C54.0212 12.9027 55.2614 12.6998 56.084 12.3941L55.8071 11.6489ZM55.8945 11.6161L55.806 11.6493L56.0851 12.3937L56.1737 12.3605L55.8945 11.6161ZM56.7333 13.1481L56.4198 11.892L55.6484 12.0846L55.962 13.3406L56.7333 13.1481ZM56.3868 13.6478L56.4629 13.6247L56.2324 12.8639L56.1563 12.887L56.3868 13.6478ZM53.2394 14.1758C54.0699 14.1758 55.4131 13.9474 56.3885 13.6473L56.1547 12.8875C55.2359 13.1702 53.9729 13.3808 53.2394 13.3808V14.1758ZM48.4826 8.821C48.4826 10.6128 48.8006 11.9733 49.5999 12.8825C50.4107 13.8045 51.6376 14.1758 53.2394 14.1758V13.3808C51.7444 13.3808 50.7917 13.0339 50.197 12.3575C49.5909 11.6683 49.2776 10.5502 49.2776 8.821H48.4826ZM59.2207 5.04864C60.2119 4.59777 61.7713 4.35162 62.7864 4.35162V3.55662C61.6943 3.55662 60.0149 3.81399 58.8916 4.32498L59.2207 5.04864ZM59.1678 5.07218L59.2176 5.05005L58.8947 4.32357L58.8449 4.3457L59.1678 5.07218ZM59.4038 13.5252V4.70894H58.6088V13.5252H59.4038ZM60.3523 13.1277H59.0063V13.9227H60.3523V13.1277ZM59.9548 5.53154V13.5252H60.7498V5.53154H59.9548ZM62.5688 4.84816C61.6756 4.84816 60.9491 4.93942 60.239 5.15053L60.4656 5.91256C61.0862 5.72804 61.7338 5.64316 62.5688 5.64316V4.84816ZM65.5272 8.51255C65.5272 7.79797 65.489 7.21169 65.394 6.7359C65.2988 6.25934 65.1416 5.86698 64.884 5.56488C64.3583 4.94823 63.5382 4.84816 62.5688 4.84816V5.64316C63.5522 5.64316 64.0126 5.76811 64.2791 6.08069C64.4176 6.24321 64.5345 6.49152 64.6144 6.89158C64.6944 7.29241 64.7323 7.81871 64.7323 8.51255H65.5272ZM65.5272 13.5247V8.51255H64.7323V13.5247H65.5272ZM66.4762 13.1272H65.1297V13.9222H66.4762V13.1272ZM66.0787 8.27739V13.5247H66.8737V8.27739H66.0787ZM62.7869 4.35116C64.1519 4.35116 64.9205 4.61172 65.3765 5.1462C65.8495 5.7006 66.0787 6.65048 66.0787 8.27739H66.8737C66.8737 6.63142 66.6546 5.41943 65.9813 4.63019C65.2909 3.82102 64.2148 3.55616 62.7869 3.55616V4.35116ZM63.0679 4.23476L63.0684 4.2343L62.5054 3.67302L62.5049 3.67348L63.0679 4.23476ZM72.4376 7.70643C71.6544 7.65474 71.1859 7.53873 70.9198 7.37833C70.7961 7.30371 70.7243 7.22411 70.6801 7.14049C70.6347 7.05466 70.6049 6.93911 70.6049 6.77417H69.8099C69.8099 7.03507 69.8573 7.28545 69.9774 7.51228C70.0985 7.74131 70.2804 7.92109 70.5093 8.05915C70.9488 8.32411 71.5823 8.44671 72.3853 8.4997L72.4376 7.70643ZM76.275 10.8139C76.275 9.86021 75.9843 9.09283 75.3004 8.55797C74.643 8.04378 73.679 7.79171 72.4387 7.7065L72.3842 8.49963C73.5734 8.58134 74.3425 8.81803 74.8107 9.1842C75.2524 9.5297 75.48 10.0343 75.48 10.8139H76.275ZM72.2611 14.1758C73.5854 14.1758 74.608 13.9685 75.2972 13.4036C76.0077 12.8213 76.275 11.9369 76.275 10.8139H75.48C75.48 11.8244 75.2404 12.4222 74.7933 12.7887C74.3249 13.1726 73.5393 13.3808 72.2611 13.3808V14.1758ZM68.8086 13.6612C69.7696 13.9881 71.3107 14.1758 72.2611 14.1758V13.3808C71.3699 13.3808 69.9203 13.1996 69.0646 12.9086L68.8086 13.6612ZM68.7301 13.6346L68.8089 13.6613L69.0643 12.9085L68.9854 12.8817L68.7301 13.6346ZM68.8978 11.8607L68.48 13.1343L69.2354 13.3821L69.6532 12.1085L68.8978 11.8607ZM69.5268 11.6626L69.4415 11.6234L69.1095 12.3458L69.1948 12.385L69.5268 11.6626ZM72.2607 12.1437C71.8104 12.1437 71.2629 12.0875 70.7517 11.9963C70.2346 11.904 69.7876 11.7817 69.5259 11.6622L69.1957 12.3854C69.5482 12.5463 70.0723 12.6826 70.6121 12.7789C71.1579 12.8763 71.7532 12.9387 72.2607 12.9387V12.1437ZM74.0257 10.9227C74.0257 11.5489 73.8697 11.7879 73.6745 11.9149C73.4276 12.0755 73.0011 12.1437 72.2607 12.1437V12.9387C72.9851 12.9387 73.6399 12.8858 74.108 12.5813C74.6279 12.2431 74.8207 11.6729 74.8207 10.9227H74.0257ZM72.2211 9.80828C73.1213 9.88248 73.5589 10.0387 73.7744 10.2106C73.9513 10.3518 74.0257 10.5433 74.0257 10.9227H74.8207C74.8207 10.4385 74.7222 9.94985 74.2703 9.58921C73.8569 9.25937 73.2098 9.09209 72.2864 9.01597L72.2211 9.80828ZM68.3556 6.88253C68.3556 7.51769 68.4697 8.22883 69.0789 8.79574C69.669 9.3448 70.6553 9.69283 72.2245 9.80855L72.283 9.0157C70.7758 8.90456 70.0117 8.57777 69.6205 8.21374C69.2485 7.86756 69.1506 7.42733 69.1506 6.88253H68.3556ZM72.4603 3.55659C71.1325 3.55659 70.0941 3.77713 69.3857 4.33677C68.6547 4.9143 68.3556 5.78527 68.3556 6.88253H69.1506C69.1506 5.92743 69.4057 5.33419 69.8786 4.96058C70.3741 4.56909 71.1894 4.35159 72.4603 4.35159V3.55659ZM75.5976 4.04584C74.4833 3.7332 73.3705 3.55659 72.4603 3.55659V4.35159C73.2793 4.35159 74.3179 4.5125 75.3828 4.81128L75.5976 4.04584ZM75.6847 4.07041L75.5981 4.04597L75.3824 4.81115L75.469 4.83558L75.6847 4.07041ZM75.4936 5.87568L75.9515 4.58599L75.2023 4.32001L74.7444 5.6097L75.4936 5.87568ZM74.8928 6.08095L74.9739 6.11277L75.2641 5.37262L75.183 5.3408L74.8928 6.08095ZM72.4603 5.60716C73.2169 5.60716 74.1317 5.78396 74.8934 6.08118L75.1824 5.34058C74.3347 5.00978 73.3222 4.81216 72.4603 4.81216V5.60716ZM70.6049 6.77417C70.6049 6.17143 70.757 5.95049 70.9559 5.82969C71.2164 5.67146 71.6694 5.60716 72.4603 5.60716V4.81216C71.6932 4.81216 71.0197 4.86083 70.5432 5.15021C70.0052 5.47703 69.8099 6.03834 69.8099 6.77417H70.6049ZM78.9221 10.5238C78.9221 11.4063 79.0279 12.0995 79.5456 12.5111C79.7975 12.7113 80.1091 12.813 80.453 12.8686C80.7961 12.9241 81.2064 12.9386 81.6814 12.9386V12.1436C81.213 12.1436 80.8563 12.1285 80.5798 12.0838C80.304 12.0392 80.143 11.9703 80.0403 11.8887C79.8489 11.7366 79.7171 11.4212 79.7171 10.5238H78.9221ZM81.6814 8.32663C81.2132 8.32663 80.8091 8.34043 80.4703 8.39054C80.1322 8.44054 79.8255 8.53108 79.5744 8.70844C79.0407 9.08535 78.9221 9.72716 78.9221 10.5238H79.7171C79.7171 9.74487 79.8503 9.48684 80.033 9.3578C80.14 9.2822 80.3076 9.21824 80.5866 9.17699C80.8648 9.13584 81.2205 9.12163 81.6814 9.12163V8.32663ZM84.15 8.55433C83.4975 8.40469 82.6237 8.32663 81.6814 8.32663V9.12163C82.589 9.12163 83.3983 9.19758 83.9723 9.32921L84.15 8.55433ZM84.4586 12.1492V8.94177H83.6636V12.1492H84.4586ZM81.6814 12.9386C82.5331 12.9386 83.42 12.7936 84.192 12.5245L83.9303 11.7738C83.2471 12.012 82.449 12.1436 81.6814 12.1436V12.9386ZM81.5182 3.55659C80.515 3.55659 79.447 3.71671 78.3439 4.02802L78.5598 4.79313C79.6036 4.49856 80.5986 4.35159 81.5182 4.35159V3.55659ZM85.8046 7.58894C85.8046 6.21399 85.5473 5.16319 84.8108 4.47476C84.0819 3.79347 82.9767 3.55659 81.5182 3.55659V4.35159C82.9309 4.35159 83.7702 4.59032 84.2679 5.05556C84.758 5.51366 85.0096 6.28029 85.0096 7.58894H85.8046ZM85.8046 13.0239V7.58894H85.0096V13.0239H85.8046ZM85.5187 13.4093L85.5685 13.3872L85.2456 12.6607L85.1958 12.6828L85.5187 13.4093ZM81.627 14.1758C82.9209 14.1758 84.5129 13.8667 85.5218 13.4079L85.1927 12.6842C84.3056 13.0876 82.8295 13.3808 81.627 13.3808V14.1758ZM77.4319 10.6147C77.4319 11.8268 77.6882 12.7663 78.4223 13.3779C79.1351 13.9717 80.2088 14.1758 81.627 14.1758V13.3808C80.2413 13.3808 79.4161 13.1711 78.9311 12.767C78.4674 12.3807 78.2269 11.7385 78.2269 10.6147H77.4319ZM81.5366 7.10752C80.4133 7.10752 79.3766 7.2361 78.6201 7.7666C77.8289 8.32145 77.4319 9.24689 77.4319 10.6147H78.2269C78.2269 9.40169 78.5706 8.77229 79.0766 8.41751C79.6172 8.03838 80.4342 7.90252 81.5366 7.90252V7.10752ZM84.1412 7.38642C83.165 7.18457 82.444 7.10752 81.5366 7.10752V7.90252C82.3851 7.90252 83.052 7.97302 83.9802 8.16495L84.1412 7.38642ZM81.4458 5.64313C82.4998 5.64313 82.9927 5.77353 83.2558 6.02683C83.5147 6.27617 83.6551 6.74703 83.6632 7.77881L84.4582 7.77256C84.4501 6.75059 84.3288 5.95643 83.8072 5.45417C83.2897 4.95588 82.4833 4.84813 81.4458 4.84813V5.64313ZM79.0071 6.0398C79.5723 5.79953 80.4835 5.64313 81.4458 5.64313V4.84813C80.4207 4.84813 79.3934 5.01173 78.6961 5.30817L79.0071 6.0398ZM78.9207 6.07623L79.0061 6.04026L78.6972 5.30771L78.6119 5.34368L78.9207 6.07623ZM77.9893 4.55182L78.3868 5.82814L79.1458 5.59176L78.7484 4.31544L77.9893 4.55182ZM78.3455 4.02758L78.2625 4.05063L78.4752 4.81663L78.5582 4.79357L78.3455 4.02758ZM87.5945 13.948C87.5945 14.7913 87.4562 15.145 87.2934 15.3098C87.136 15.4692 86.8598 15.5498 86.2647 15.5498V16.3448C86.8639 16.3448 87.4514 16.2812 87.859 15.8685C88.2613 15.4613 88.3895 14.8154 88.3895 13.948H87.5945ZM87.5945 4.20819V13.948H88.3895V4.20819H87.5945ZM89.338 3.81069H87.992V4.60569H89.338V3.81069ZM89.7355 13.948V4.20819H88.9405V13.948H89.7355ZM86.2647 17.5999C87.0768 17.5999 87.9666 17.5047 88.6484 16.9579C89.3492 16.3961 89.7355 15.4401 89.7355 13.948H88.9405C88.9405 15.3161 88.5881 15.9874 88.1511 16.3377C87.6954 16.7031 87.0485 16.805 86.2647 16.805V17.5999ZM86.1803 17.5999H86.2647V16.805H86.1803V17.5999ZM85.7828 15.9473V17.2024H86.5778V15.9473H85.7828ZM86.2647 15.5498H86.1803V16.3448H86.2647V15.5498ZM95.8842 4.8301C94.9081 4.8301 94.1348 4.98178 93.6006 5.49561C93.0707 6.00528 92.8651 6.78698 92.7881 7.80087L93.5809 7.86107C93.6552 6.88245 93.8462 6.36248 94.1517 6.06858C94.4529 5.77885 94.9538 5.6251 95.8842 5.6251V4.8301ZM98.5838 7.80941C98.5237 6.70238 98.3444 5.91479 97.8716 5.42553C97.3848 4.9217 96.6831 4.8301 95.8842 4.8301V5.6251C96.6724 5.6251 97.0621 5.73178 97.2999 5.97793C97.5518 6.23865 97.7303 6.75274 97.79 7.85253L98.5838 7.80941ZM93.1845 8.22847H98.1869V7.43347H93.1845V8.22847ZM95.8842 3.55659C94.3531 3.55659 93.1688 3.9363 92.3821 4.84879C91.6077 5.74709 91.2907 7.08148 91.2907 8.821H92.0857C92.0857 7.14929 92.396 6.05023 92.9843 5.36788C93.5603 4.69972 94.474 4.35159 95.8842 4.35159V3.55659ZM100.098 8.98423C100.098 7.11536 99.8517 5.74092 99.1654 4.83627C98.4546 3.89928 97.3478 3.55659 95.8842 3.55659V4.35159C97.2379 4.35159 98.0392 4.66711 98.532 5.31677C99.0494 5.99876 99.3028 7.1394 99.3028 8.98423H100.098ZM100.098 9.06815V8.98423H99.3028V9.06815H100.098ZM93.1609 9.46565H99.7003V8.67065H93.1609V9.46565ZM96.1558 12.1077C95.1662 12.1077 94.5763 11.972 94.2043 11.6004C93.8271 11.2235 93.5762 10.5055 93.5584 9.06325L92.7635 9.07304C92.7817 10.5505 93.0301 11.551 93.6424 12.1627C94.2598 12.7797 95.1493 12.9027 96.1558 12.9027V12.1077ZM98.6152 11.6489C97.882 11.9214 96.7356 12.1077 96.1558 12.1077V12.9027C96.8292 12.9027 98.0695 12.6998 98.8921 12.3941L98.6152 11.6489ZM98.7015 11.6163L98.6134 11.6495L98.8939 12.3934L98.9819 12.3602L98.7015 11.6163ZM99.5409 13.1481L99.2274 11.892L98.456 12.0846L98.7696 13.3406L99.5409 13.1481ZM99.1944 13.6478L99.2705 13.6248L99.04 12.8639L98.9639 12.887L99.1944 13.6478ZM96.047 14.1758C96.8775 14.1758 98.2211 13.9474 99.1961 13.6473L98.9622 12.8875C98.0439 13.1702 96.7805 13.3808 96.047 13.3808V14.1758ZM91.2907 8.821C91.2907 10.6128 91.6086 11.9733 92.4079 12.8825C93.2186 13.8045 94.4454 14.1758 96.047 14.1758V13.3808C94.5523 13.3808 93.5996 13.0339 93.005 12.3575C92.399 11.6683 92.0857 10.5502 92.0857 8.821H91.2907ZM103.43 5.02438C103.783 4.69912 104.562 4.35163 105.648 4.35163V3.55663C104.416 3.55663 103.426 3.9469 102.891 4.43963L103.43 5.02438ZM102.763 4.20819V4.732H103.558V4.20819H102.763ZM101.814 4.60569H103.16V3.81069H101.814V4.60569ZM102.212 13.5247V4.20819H101.417V13.5247H102.212ZM103.16 13.1272H101.814V13.9222H103.16V13.1272ZM102.763 6.44822V13.5247H103.558V6.44822H102.763ZM105.648 4.92102C105.049 4.92102 104.375 4.99724 103.835 5.19824C103.319 5.39067 102.763 5.76793 102.763 6.44822H103.558C103.558 6.29483 103.672 6.10725 104.113 5.94325C104.53 5.78782 105.1 5.71602 105.648 5.71602V4.92102ZM106.632 4.99639C106.377 4.96265 106.024 4.92102 105.648 4.92102V5.71602C105.97 5.71602 106.281 5.75186 106.528 5.78452L106.632 4.99639ZM106.728 5.00949L106.633 4.99658L106.526 5.78433L106.621 5.79724L106.728 5.00949ZM106.277 4.01822V5.40337H107.072V4.01822H106.277ZM106.552 4.40343L106.626 4.41265L106.724 3.62379L106.65 3.61457L106.552 4.40343ZM105.65 4.35117C105.952 4.35033 106.254 4.36787 106.554 4.4037L106.648 3.6143C106.316 3.57466 105.982 3.55524 105.647 3.55617L105.65 4.35117ZM106.046 3.95413V3.95367H105.251V3.95413H106.046ZM112.025 12.1257C110.988 12.1257 110.465 11.9233 110.16 11.5176C109.825 11.073 109.663 10.282 109.663 8.85745H108.868C108.868 10.2765 109.015 11.3184 109.525 11.9958C110.064 12.712 110.922 12.9207 112.025 12.9207V12.1257ZM114.406 8.85745C114.406 10.2818 114.243 11.0722 113.906 11.5166C113.598 11.9229 113.071 12.1257 112.025 12.1257V12.9207C113.136 12.9207 113.997 12.7124 114.54 11.9968C115.053 11.3192 115.201 10.2767 115.201 8.85745H114.406ZM112.025 5.60672C113.067 5.60672 113.584 5.74865 113.891 6.11718C114.051 6.30962 114.183 6.59812 114.273 7.04876C114.363 7.49993 114.406 8.0883 114.406 8.85745H115.201C115.201 8.06623 115.157 7.41839 115.052 6.89296C114.947 6.36698 114.776 5.93847 114.502 5.60894C113.94 4.93354 113.068 4.81172 112.025 4.81172V5.60672ZM109.663 8.85745C109.663 8.17903 109.688 7.63375 109.757 7.19472C109.827 6.75536 109.936 6.45015 110.087 6.23331C110.364 5.83298 110.874 5.60672 112.025 5.60672V4.81172C110.815 4.81172 109.946 5.04103 109.433 5.78054C109.189 6.13362 109.051 6.5694 108.972 7.07069C108.893 7.5723 108.868 8.16731 108.868 8.85745H109.663ZM108.19 8.821C108.19 7.06983 108.478 5.97825 109.052 5.3181C109.612 4.6734 110.527 4.35165 112.025 4.35159L112.025 3.55659C110.438 3.55665 109.236 3.89459 108.452 4.79643C107.681 5.68282 107.395 7.02463 107.395 8.821H108.19ZM112.025 13.3808C110.529 13.3808 109.615 13.054 109.054 12.3968C108.478 11.7221 108.19 10.6065 108.19 8.821H107.395C107.395 10.6496 107.681 12.0127 108.45 12.9131C109.233 13.831 110.436 14.1758 112.025 14.1758V13.3808ZM115.879 8.82146C115.879 10.6065 115.59 11.7216 115.011 12.3962C114.447 13.0538 113.529 13.3808 112.025 13.3808V14.1758C113.621 14.1758 114.828 13.8312 115.615 12.9138C116.387 12.0134 116.674 10.6501 116.674 8.82146H115.879ZM112.025 4.35159C113.53 4.35159 114.45 4.67352 115.013 5.3187C115.59 5.97883 115.879 7.07023 115.879 8.82146H116.674C116.674 7.02452 116.387 5.68224 115.612 4.79572C114.825 3.89425 113.619 3.55659 112.025 3.55659V4.35159ZM122.021 7.70643C121.238 7.65474 120.769 7.53873 120.503 7.37833C120.38 7.30371 120.308 7.22411 120.264 7.14049C120.218 7.05466 120.188 6.93911 120.188 6.77417H119.393C119.393 7.03507 119.441 7.28545 119.561 7.51228C119.682 7.74131 119.864 7.92109 120.093 8.05915C120.532 8.32411 121.166 8.44671 121.969 8.4997L122.021 7.70643ZM125.858 10.8139C125.858 9.86021 125.568 9.09283 124.884 8.55797C124.226 8.04378 123.262 7.79171 122.022 7.7065L121.968 8.49963C123.157 8.58134 123.926 8.81803 124.394 9.1842C124.836 9.5297 125.063 10.0343 125.063 10.8139H125.858ZM121.844 14.1758C123.169 14.1758 124.191 13.9685 124.881 13.4036C125.591 12.8213 125.858 11.9369 125.858 10.8139H125.063C125.063 11.8244 124.824 12.4222 124.377 12.7887C123.908 13.1726 123.123 13.3808 121.844 13.3808V14.1758ZM118.392 13.6613C119.353 13.9881 120.894 14.1758 121.844 14.1758V13.3808C120.953 13.3808 119.504 13.1996 118.648 12.9086L118.392 13.6613ZM118.313 13.6344L118.391 13.6611L118.648 12.9087L118.57 12.882L118.313 13.6344ZM118.481 11.8608L118.063 13.1344L118.819 13.3819L119.236 12.1084L118.481 11.8608ZM119.109 11.6623L119.024 11.6231L118.693 12.3461L118.779 12.3853L119.109 11.6623ZM121.844 12.1437C121.393 12.1437 120.846 12.0875 120.335 11.9963C119.818 11.904 119.371 11.7817 119.109 11.6622L118.779 12.3854C119.132 12.5463 119.656 12.6826 120.195 12.7789C120.741 12.8763 121.336 12.9387 121.844 12.9387V12.1437ZM123.609 10.9227C123.609 11.549 123.453 11.788 123.258 11.9149C123.011 12.0755 122.584 12.1437 121.844 12.1437V12.9387C122.568 12.9387 123.223 12.8858 123.691 12.5813C124.211 12.243 124.404 11.6728 124.404 10.9227H123.609ZM121.805 9.80828C122.705 9.88249 123.142 10.0387 123.358 10.2106C123.534 10.3517 123.609 10.5431 123.609 10.9227H124.404C124.404 10.4386 124.305 9.94994 123.854 9.58926C123.44 9.25937 122.793 9.09209 121.87 9.01597L121.805 9.80828ZM117.939 6.88253C117.939 7.51769 118.053 8.22884 118.662 8.79575C119.252 9.34481 120.239 9.69283 121.808 9.80855L121.866 9.0157C120.359 8.90456 119.595 8.57776 119.204 8.21373C118.832 7.86754 118.734 7.42733 118.734 6.88253H117.939ZM122.044 3.55659C120.716 3.55659 119.677 3.77712 118.969 4.33676C118.238 4.91428 117.939 5.78527 117.939 6.88253H118.734C118.734 5.92744 118.989 5.3342 119.462 4.96059C119.957 4.5691 120.773 4.35159 122.044 4.35159V3.55659ZM125.181 4.04584C124.066 3.7332 122.953 3.55659 122.044 3.55659V4.35159C122.862 4.35159 123.901 4.5125 124.966 4.81128L125.181 4.04584ZM125.268 4.07041L125.181 4.04597L124.965 4.81114L125.052 4.83558L125.268 4.07041ZM125.077 5.87556L125.535 4.58586L124.785 4.32013L124.328 5.60982L125.077 5.87556ZM124.476 6.08095L124.557 6.11277L124.848 5.37262L124.766 5.3408L124.476 6.08095ZM122.043 5.60716C122.8 5.60716 123.715 5.78396 124.477 6.08118L124.766 5.34058C123.918 5.00978 122.906 4.81216 122.043 4.81216V5.60716ZM120.188 6.77417C120.188 6.17134 120.34 5.95042 120.539 5.82967C120.8 5.67147 121.252 5.60716 122.043 5.60716V4.81216C121.276 4.81216 120.603 4.86082 120.126 5.15024C119.588 5.47709 119.393 6.03843 119.393 6.77417H120.188Z" fill="black"/>
<path fill-rule="evenodd" clip-rule="evenodd" d="M51.1307 19.0939C51.7486 18.6568 52.5661 18.4354 53.5653 18.4354C56.6507 18.4356 57.7978 19.7746 57.7978 23.3747C57.7978 26.9363 56.6506 28.2596 53.5649 28.2596C52.5117 28.2596 50.8923 28.0083 49.8346 27.5274L49.7852 27.5053V14.7582H51.1307V19.0939ZM44.9174 19.2133C45.3614 18.8043 46.2463 18.4354 47.406 18.4354C47.7242 18.4345 48.0422 18.453 48.3581 18.4908L48.4319 18.5V19.8838L48.3369 19.8713C48.087 19.8376 47.7555 19.7994 47.406 19.7994C46.2578 19.7994 44.9179 20.0954 44.9179 20.9291V28.006H43.5715V18.6895H44.9174V19.2133ZM37.4241 26.9685C38.3158 26.9685 39.0084 26.8745 39.6586 26.6651V18.6895H41.0041V27.5057L40.9543 27.5278C39.878 28.0083 38.2633 28.2601 37.224 28.2601C34.4315 28.2601 33.5352 27.2092 33.5352 23.9363V18.689H34.8816V23.7012C34.8816 26.5176 35.4851 26.9685 37.4241 26.9685ZM51.1307 20.9291C51.1307 20.1032 52.3928 19.727 53.5653 19.727C55.732 19.727 56.3255 20.5072 56.3255 23.3568C56.3255 26.4461 55.6361 26.9681 53.5653 26.9681C52.6731 26.9681 51.7901 26.839 51.1307 26.6126V20.9291ZM63.6556 27.0225C61.7688 27.0225 61.2943 26.7855 61.2943 25.0051C61.2943 23.4296 61.7974 23.2055 63.6556 23.2055C64.581 23.2055 65.4221 23.2825 66.0353 23.4231V26.6305C65.3086 26.8841 64.4657 27.0225 63.656 27.0225H63.6556ZM60.4265 18.8919C61.499 18.589 62.531 18.4354 63.4928 18.4354C66.3636 18.4354 67.3813 19.3867 67.3813 22.0703V27.5053L67.332 27.5274C66.3835 27.9585 64.8494 28.2601 63.6012 28.2601C60.7972 28.2601 59.8036 27.432 59.8036 25.096C59.8036 22.5152 61.2855 21.9864 63.5108 21.9864C64.3883 21.9864 65.0822 22.0601 66.0353 22.2566C66.0192 20.2033 65.512 19.727 63.42 19.727C62.4263 19.727 61.4566 19.887 60.8263 20.1553L60.7405 20.1913L60.3435 18.915L60.4265 18.8919ZM73.7463 18.4355C72.6927 18.4355 71.0733 18.6872 70.016 19.1682L69.9662 19.1903V28.0065H71.3122V20.0129C71.9775 19.8151 72.6641 19.727 73.5287 19.727C75.4814 19.727 76.0896 20.1775 76.0896 22.9939V28.0061H77.4356V22.7587C77.4356 19.4859 76.5392 18.435 73.7463 18.435V18.4355ZM81.2396 23.3388C81.2396 26.1824 81.8589 27.0045 83.9998 27.0045C86.155 27.0045 86.7784 26.1824 86.7784 23.3388C86.7784 20.2181 86.0844 19.6906 83.9998 19.6906C81.6385 19.6906 81.2396 20.6017 81.2396 23.3388ZM83.9998 18.4354C80.9141 18.4354 79.7669 19.7542 79.7669 23.3023C79.7669 26.9164 80.9141 28.2596 83.9998 28.2596C87.0984 28.2596 88.2511 26.9164 88.2511 23.3023C88.2511 19.7546 87.0984 18.4354 83.9998 18.4354ZM91.7652 21.2555C91.7652 22.1072 92.3831 22.4797 93.9692 22.5844C96.3988 22.7513 97.4353 23.5619 97.4353 25.2948C97.4353 27.4287 96.4214 28.2596 93.8189 28.2596C92.8986 28.2596 91.4032 28.0752 90.4944 27.7663L90.4155 27.7395L90.8333 26.4655L90.9186 26.5047C91.5323 26.7855 92.8603 27.0225 93.8185 27.0225C95.2834 27.0225 95.981 26.7804 95.981 25.404C95.981 24.5404 95.6352 24.0438 93.8115 23.8935C90.7351 23.6666 90.3109 22.5438 90.3109 21.3639C90.3109 19.3115 91.4194 18.4354 94.0181 18.4354C94.8827 18.4354 95.9584 18.6042 97.048 18.9099L97.1347 18.9343L96.6768 20.224L96.5957 20.1922C95.7915 19.8782 94.8278 19.691 94.0181 19.691C92.4601 19.691 91.7652 19.9169 91.7652 21.2555Z" fill="black"/>
<path d="M53.5653 18.4354L53.5654 18.0379H53.5653V18.4354ZM51.1307 19.0939H50.7332V19.862L51.3603 19.4184L51.1307 19.0939ZM49.8346 27.5274L49.9991 27.1655L49.9973 27.1647L49.8346 27.5274ZM49.7852 27.5053H49.3877V27.7626L49.6225 27.868L49.7852 27.5053ZM49.7852 14.7582V14.3607H49.3877V14.7582H49.7852ZM51.1307 14.7582H51.5282V14.3607H51.1307V14.7582ZM47.406 18.4354V18.8329L47.4071 18.8329L47.406 18.4354ZM44.9174 19.2133H44.5199V20.1199L45.1867 19.5057L44.9174 19.2133ZM48.3581 18.4908L48.4074 18.0963L48.4053 18.0961L48.3581 18.4908ZM48.4319 18.5H48.8294V18.1491L48.4812 18.1056L48.4319 18.5ZM48.4319 19.8838L48.3803 20.2779L48.8294 20.3368V19.8838H48.4319ZM48.3369 19.8713L48.2839 20.2653L48.2853 20.2654L48.3369 19.8713ZM44.9179 28.006V28.4035H45.3154V28.006H44.9179ZM43.5715 28.006H43.174V28.4035H43.5715V28.006ZM43.5715 18.6895V18.292H43.174V18.6895H43.5715ZM44.9174 18.6895H45.3149V18.292H44.9174V18.6895ZM39.6586 26.6651L39.7804 27.0435L40.0561 26.9547V26.6651H39.6586ZM39.6586 18.6895V18.292H39.2611V18.6895H39.6586ZM41.0041 18.6895H41.4016V18.292H41.0041V18.6895ZM41.0041 27.5057L41.1655 27.869L41.4016 27.764V27.5057H41.0041ZM40.9543 27.5278L40.7928 27.1646L40.7922 27.1649L40.9543 27.5278ZM33.5352 18.689V18.2915H33.1377V18.689H33.5352ZM34.8816 18.689H35.2791V18.2915H34.8816V18.689ZM51.1307 26.6126H50.7332V26.8964L51.0016 26.9886L51.1307 26.6126ZM66.0353 23.4231H66.4328V23.1065L66.1242 23.0357L66.0353 23.4231ZM66.0353 26.6305L66.1663 27.0058L66.4328 26.9128V26.6305H66.0353ZM60.4265 18.8919L60.5329 19.2749L60.5346 19.2745L60.4265 18.8919ZM67.3813 27.5053L67.544 27.868L67.7788 27.7626V27.5053H67.3813ZM67.332 27.5274L67.1693 27.1647L67.1675 27.1655L67.332 27.5274ZM66.0353 22.2566L65.9551 22.6459L66.4367 22.7451L66.4328 22.2534L66.0353 22.2566ZM60.8263 20.1553L60.98 20.5219L60.982 20.5211L60.8263 20.1553ZM60.7405 20.1913L60.361 20.3094L60.4909 20.727L60.8943 20.5579L60.7405 20.1913ZM60.3435 18.915L60.2371 18.532L59.8422 18.6417L59.964 19.033L60.3435 18.915ZM70.016 19.1682L70.1775 19.5314L70.1806 19.53L70.016 19.1682ZM73.7463 18.4355V18.833H74.1438V18.4355H73.7463ZM69.9662 19.1903L69.8048 18.827L69.5687 18.932V19.1903H69.9662ZM69.9662 28.0065H69.5687V28.404H69.9662V28.0065ZM71.3122 28.0065V28.404H71.7097V28.0065H71.3122ZM71.3122 20.0129L71.1989 19.6319L70.9147 19.7164V20.0129H71.3122ZM76.0896 28.0061H75.6921V28.4036H76.0896V28.0061ZM77.4356 28.0061V28.4036H77.8331V28.0061H77.4356ZM73.7463 18.435V18.0375H73.3488V18.435H73.7463ZM93.9692 22.5844L93.9965 22.1878L93.9954 22.1878L93.9692 22.5844ZM90.4944 27.7663L90.6223 27.3899L90.6221 27.3898L90.4944 27.7663ZM90.4155 27.7395L90.0378 27.6157L89.9152 27.9896L90.2879 28.1159L90.4155 27.7395ZM90.8333 26.4655L90.9993 26.1043L90.5944 25.9183L90.4556 26.3416L90.8333 26.4655ZM90.9186 26.5047L90.7526 26.8659L90.7532 26.8661L90.9186 26.5047ZM93.8115 23.8935L93.8442 23.4973L93.8408 23.497L93.8115 23.8935ZM97.048 18.9099L97.1559 18.5273L97.1554 18.5272L97.048 18.9099ZM97.1347 18.9343L97.5093 19.0673L97.6514 18.667L97.2425 18.5518L97.1347 18.9343ZM96.6768 20.224L96.5317 20.5941L96.914 20.744L97.0514 20.357L96.6768 20.224ZM96.5957 20.1922L96.7407 19.8221L96.7402 19.8219L96.5957 20.1922ZM53.5653 18.0379C52.5098 18.0379 51.6046 18.2717 50.9012 18.7694L51.3603 19.4184C51.8926 19.0418 52.6224 18.8329 53.5653 18.8329V18.0379ZM58.1953 23.3747C58.1953 21.5529 57.9096 20.1941 57.1404 19.2965C56.3566 18.3817 55.1544 18.038 53.5654 18.0379L53.5653 18.8329C55.0616 18.833 55.9757 19.159 56.5367 19.8137C57.1124 20.4857 57.4003 21.5964 57.4003 23.3747H58.1953ZM53.5649 28.6571C55.1528 28.6571 56.3546 28.3181 57.1389 27.4131C57.9094 26.524 58.1953 25.1779 58.1953 23.3747H57.4003C57.4003 25.1331 57.1126 26.2295 56.5381 26.8924C55.9773 27.5395 55.0626 27.8621 53.5649 27.8621V28.6571ZM49.6701 27.8893C50.7939 28.4002 52.4733 28.6571 53.5649 28.6571V27.8621C52.5501 27.8621 50.9908 27.6164 49.9991 27.1656L49.6701 27.8893ZM49.6225 27.868L49.6719 27.8901L49.9973 27.1647L49.9479 27.1426L49.6225 27.868ZM49.3877 14.7582V27.5053H50.1827V14.7582H49.3877ZM51.1307 14.3607H49.7852V15.1557H51.1307V14.3607ZM51.5282 19.0939V14.7582H50.7332V19.0939H51.5282ZM47.406 18.0379C46.1733 18.0379 45.1831 18.4282 44.6481 18.9209L45.1867 19.5057C45.5398 19.1805 46.3193 18.8329 47.406 18.8329V18.0379ZM48.4053 18.0961C48.0733 18.0564 47.7392 18.037 47.4048 18.0379L47.4071 18.8329C47.7092 18.8321 48.011 18.8496 48.311 18.8855L48.4053 18.0961ZM48.4812 18.1056L48.4074 18.0963L48.3088 18.8852L48.3826 18.8944L48.4812 18.1056ZM48.8294 19.8838V18.5H48.0344V19.8838H48.8294ZM48.2853 20.2654L48.3803 20.2779L48.4836 19.4896L48.3886 19.4772L48.2853 20.2654ZM47.406 20.1969C47.7286 20.1969 48.0393 20.2323 48.2839 20.2652L48.39 19.4774C48.1347 19.443 47.7823 19.4019 47.406 19.4019V20.1969ZM45.3154 20.9291C45.3154 20.7756 45.4298 20.5881 45.8701 20.4241C46.2874 20.2687 46.8572 20.1969 47.406 20.1969V19.4019C46.8066 19.4019 46.1323 19.4781 45.5926 19.6791C45.0759 19.8716 44.5204 20.2488 44.5204 20.9291H45.3154ZM45.3154 28.006V20.9291H44.5204V28.006H45.3154ZM43.5715 28.4035H44.9179V27.6085H43.5715V28.4035ZM43.174 18.6895V28.006H43.969V18.6895H43.174ZM44.9174 18.292H43.5715V19.087H44.9174V18.292ZM45.3149 19.2133V18.6895H44.5199V19.2133H45.3149ZM39.5367 26.2868C38.9359 26.4802 38.2864 26.571 37.4241 26.571V27.366C38.3453 27.366 39.081 27.2687 39.7804 27.0435L39.5367 26.2868ZM39.2611 18.6895V26.6651H40.0561V18.6895H39.2611ZM41.0041 18.292H39.6586V19.087H41.0041V18.292ZM41.4016 27.5057V18.6895H40.6066V27.5057H41.4016ZM41.1157 27.8911L41.1655 27.869L40.8426 27.1425L40.7928 27.1646L41.1157 27.8911ZM37.224 28.6576C38.303 28.6576 39.9762 28.3998 41.1163 27.8908L40.7922 27.1649C39.7799 27.6168 38.2235 27.8626 37.224 27.8626V28.6576ZM33.1377 23.9363C33.1377 25.5823 33.3567 26.7943 34.03 27.5835C34.7203 28.3927 35.7963 28.6576 37.224 28.6576V27.8626C35.8592 27.8626 35.0908 27.602 34.6348 27.0675C34.1618 26.5131 33.9327 25.5632 33.9327 23.9363H33.1377ZM33.1377 18.689V23.9363H33.9327V18.689H33.1377ZM34.8816 18.2915H33.5352V19.0865H34.8816V18.2915ZM35.2791 23.7012V18.689H34.4841V23.7012H35.2791ZM37.4241 26.571C36.4482 26.571 35.993 26.446 35.7292 26.1342C35.5916 25.9716 35.4755 25.723 35.3961 25.3226C35.3166 24.9215 35.2791 24.395 35.2791 23.7012H34.4841C34.4841 24.4156 34.522 25.0016 34.6163 25.4772C34.7106 25.9534 34.8666 26.3456 35.1223 26.6478C35.645 27.2656 36.461 27.366 37.4241 27.366V26.571ZM53.5653 19.3295C52.9449 19.3295 52.2789 19.4279 51.7522 19.6528C51.2413 19.8709 50.7332 20.2726 50.7332 20.9291H51.5282C51.5282 20.7597 51.6511 20.5604 52.0644 20.3839C52.4619 20.2142 53.0132 20.1245 53.5653 20.1245V19.3295ZM56.723 23.3568C56.723 21.9381 56.5832 20.9019 56.0743 20.2327C55.5359 19.5246 54.6751 19.3295 53.5653 19.3295V20.1245C54.6223 20.1245 55.1416 20.3195 55.4415 20.7139C55.771 21.1472 55.928 21.9258 55.928 23.3568H56.723ZM53.5653 27.3656C54.6008 27.3656 55.4683 27.2452 56.0271 26.5756C56.2999 26.2488 56.4706 25.8238 56.5752 25.3026C56.6796 24.7819 56.723 24.1402 56.723 23.3568H55.928C55.928 24.118 55.8852 24.7001 55.7957 25.1462C55.7063 25.5917 55.5752 25.8765 55.4168 26.0663C55.1132 26.43 54.6007 26.5706 53.5653 26.5706V27.3656ZM51.0016 26.9886C51.7123 27.2325 52.6408 27.3656 53.5653 27.3656V26.5706C52.7055 26.5706 51.868 26.4454 51.2598 26.2366L51.0016 26.9886ZM50.7332 20.9291V26.6126H51.5282V20.9291H50.7332ZM60.8968 25.0051C60.8968 25.8877 61.0024 26.5811 61.52 26.9926C61.7719 27.1928 62.0834 27.2945 62.4273 27.35C62.7704 27.4054 63.1806 27.42 63.6556 27.42V26.625C63.1872 26.625 62.8305 26.6099 62.554 26.5652C62.2782 26.5207 62.1173 26.4518 62.0147 26.3703C61.8235 26.2182 61.6918 25.9029 61.6918 25.0051H60.8968ZM63.6556 22.808C63.1874 22.808 62.7833 22.8218 62.4445 22.8719C62.1065 22.9219 61.7998 23.0124 61.5487 23.1898C61.0152 23.5668 60.8968 24.2086 60.8968 25.0051H61.6918C61.6918 24.2261 61.8249 23.9681 62.0075 23.8391C62.1144 23.7635 62.2819 23.6996 62.5609 23.6583C62.839 23.6172 63.1947 23.603 63.6556 23.603V22.808ZM66.1242 23.0357C65.4717 22.886 64.5984 22.808 63.6556 22.808V23.603C64.5637 23.603 65.3725 23.6789 65.9465 23.8106L66.1242 23.0357ZM66.4328 26.6305V23.4231H65.6378V26.6305H66.4328ZM63.656 27.42C64.5077 27.42 65.3951 27.275 66.1663 27.0058L65.9043 26.2552C65.2221 26.4933 64.4237 26.625 63.656 26.625V27.42ZM63.6556 27.42H63.656V26.625H63.6556V27.42ZM63.4928 18.0379C62.4892 18.0379 61.4207 18.198 60.3185 18.5094L60.5346 19.2745C61.5773 18.9799 62.5727 18.8329 63.4928 18.8329V18.0379ZM67.7788 22.0703C67.7788 20.6953 67.5215 19.6445 66.7851 18.9561C66.0562 18.2748 64.9512 18.0379 63.4928 18.0379V18.8329C64.9053 18.8329 65.7445 19.0717 66.2422 19.5369C66.7322 19.995 66.9838 20.7616 66.9838 22.0703H67.7788ZM67.7788 27.5053V22.0703H66.9838V27.5053H67.7788ZM67.4946 27.8901L67.544 27.868L67.2186 27.1426L67.1693 27.1647L67.4946 27.8901ZM63.6012 28.6576C64.8952 28.6576 66.4872 28.348 67.4964 27.8893L67.1675 27.1655C66.2798 27.569 64.8036 27.8626 63.6012 27.8626V28.6576ZM59.4061 25.096C59.4061 26.3082 59.6624 27.2478 60.3964 27.8594C61.1093 28.4533 62.1829 28.6576 63.6012 28.6576V27.8626C62.2155 27.8626 61.3904 27.6528 60.9054 27.2486C60.4416 26.8622 60.2011 26.2198 60.2011 25.096H59.4061ZM63.5108 21.5889C62.3877 21.5889 61.3511 21.7175 60.5945 22.2479C59.8032 22.8028 59.4061 23.7282 59.4061 25.096H60.2011C60.2011 23.8831 60.5449 23.2537 61.0509 22.8989C61.5917 22.5197 62.4087 22.3839 63.5108 22.3839V21.5889ZM66.1156 21.8672C65.1387 21.6659 64.4178 21.5889 63.5108 21.5889V22.3839C64.3588 22.3839 65.0258 22.4544 65.9551 22.6459L66.1156 21.8672ZM63.42 20.1245C64.4743 20.1245 64.9673 20.2549 65.2304 20.5082C65.4894 20.7574 65.6297 21.2282 65.6379 22.2597L66.4328 22.2534C66.4248 21.2317 66.3035 20.4376 65.7818 19.9354C65.2643 19.4372 64.4577 19.3295 63.42 19.3295V20.1245ZM60.982 20.5211C61.5461 20.2809 62.4576 20.1245 63.42 20.1245V19.3295C62.395 19.3295 61.3671 19.493 60.6706 19.7896L60.982 20.5211ZM60.8943 20.5579L60.98 20.5219L60.6726 19.7888L60.5868 19.8247L60.8943 20.5579ZM59.964 19.033L60.361 20.3094L61.1201 20.0732L60.7231 18.7969L59.964 19.033ZM60.3201 18.5089L60.2371 18.532L60.4499 19.298L60.5329 19.2749L60.3201 18.5089ZM70.1806 19.53C71.1718 19.0791 72.7312 18.833 73.7463 18.833V18.038C72.6542 18.038 70.9748 18.2953 69.8514 18.8063L70.1806 19.53ZM70.1277 19.5535L70.1775 19.5314L69.8546 18.8049L69.8048 18.827L70.1277 19.5535ZM70.3637 28.0065V19.1903H69.5687V28.0065H70.3637ZM71.3122 27.609H69.9662V28.404H71.3122V27.609ZM70.9147 20.0129V28.0065H71.7097V20.0129H70.9147ZM73.5287 19.3295C72.635 19.3295 71.909 19.4208 71.1989 19.6319L71.4254 20.3939C72.0461 20.2094 72.6932 20.1245 73.5287 20.1245V19.3295ZM76.4871 22.9939C76.4871 22.2794 76.4489 21.6932 76.3539 21.2174C76.2587 20.7409 76.1015 20.3485 75.8439 20.0464C75.3182 19.4297 74.4981 19.3295 73.5287 19.3295V20.1245C74.512 20.1245 74.9724 20.2495 75.2389 20.5622C75.3775 20.7247 75.4944 20.9731 75.5743 21.3731C75.6543 21.7739 75.6921 22.3002 75.6921 22.9939H76.4871ZM76.4871 28.0061V22.9939H75.6921V28.0061H76.4871ZM77.4356 27.6086H76.0896V28.4036H77.4356V27.6086ZM77.0381 22.7587V28.0061H77.8331V22.7587H77.0381ZM73.7463 18.8325C75.1113 18.8325 75.8799 19.0931 76.3359 19.6275C76.8089 20.182 77.0381 21.1318 77.0381 22.7587H77.8331C77.8331 21.1128 77.614 19.9008 76.9407 19.1115C76.2503 18.3024 75.1742 18.0375 73.7463 18.0375V18.8325ZM74.1438 18.4355V18.435H73.3488V18.4355H74.1438ZM83.9998 26.607C82.9626 26.607 82.4399 26.4046 82.1344 25.9989C81.7996 25.5543 81.6371 24.7633 81.6371 23.3388H80.8421C80.8421 24.7579 80.9893 25.7998 81.4993 26.4771C82.0387 27.1934 82.8961 27.402 83.9998 27.402V26.607ZM86.3809 23.3388C86.3809 24.7631 86.2173 25.5535 85.8805 25.9979C85.5724 26.4043 85.0448 26.607 83.9998 26.607V27.402C85.1099 27.402 85.9716 27.1937 86.514 26.4781C87.0277 25.8005 87.1759 24.7581 87.1759 23.3388H86.3809ZM83.9998 20.0881C85.0417 20.0881 85.5587 20.23 85.8652 20.5986C86.0252 20.791 86.1575 21.0795 86.2476 21.5301C86.3378 21.9813 86.3809 22.5697 86.3809 23.3388H87.1759C87.1759 22.5476 87.1322 21.8997 87.0271 21.3743C86.922 20.8483 86.7505 20.4198 86.4764 20.0902C85.9148 19.4149 85.0424 19.2931 83.9998 19.2931V20.0881ZM81.6371 23.3388C81.6371 22.6604 81.6621 22.1151 81.7315 21.6761C81.8009 21.2367 81.9107 20.9315 82.061 20.7147C82.3383 20.3143 82.8484 20.0881 83.9998 20.0881V19.2931C82.7898 19.2931 81.9199 19.5224 81.4075 20.2619C81.1629 20.615 81.0254 21.0507 80.9462 21.552C80.867 22.0536 80.8421 22.6487 80.8421 23.3388H81.6371ZM80.1644 23.3023C80.1644 21.5508 80.452 20.4593 81.0261 19.7992C81.5868 19.1546 82.5017 18.8329 83.9998 18.8329V18.0379C82.4122 18.0379 81.2106 18.3757 80.4263 19.2775C79.6554 20.1638 79.3694 21.5057 79.3694 23.3023H80.1644ZM83.9998 27.8621C82.5036 27.8621 81.5897 27.5353 81.0285 26.8781C80.4523 26.2034 80.1644 25.0879 80.1644 23.3023H79.3694C79.3694 25.1309 79.6551 26.494 80.4239 27.3944C81.2078 28.3123 82.4103 28.6571 83.9998 28.6571V27.8621ZM87.8536 23.3023C87.8536 25.0876 87.5644 26.2028 86.9857 26.8775C86.4216 27.5351 85.5029 27.8621 83.9998 27.8621V28.6571C85.5953 28.6571 86.8022 28.3125 87.5891 27.3951C88.3615 26.4946 88.6486 25.1312 88.6486 23.3023H87.8536ZM83.9998 18.8329C85.5047 18.8329 86.4245 19.1549 86.9881 19.8C87.5647 20.4601 87.8536 21.5514 87.8536 23.3023H88.6486C88.6486 21.5056 88.3612 20.1634 87.5868 19.277C86.7994 18.3756 85.5934 18.0379 83.9998 18.0379V18.8329ZM93.9954 22.1878C93.2122 22.1361 92.7437 22.0201 92.4776 21.8597C92.3539 21.7851 92.2821 21.7055 92.2379 21.6218C92.1924 21.536 92.1627 21.4205 92.1627 21.2555H91.3677C91.3677 21.5164 91.4151 21.7668 91.5352 21.9936C91.6563 22.2227 91.8382 22.4024 92.0671 22.5405C92.5066 22.8055 93.1401 22.9281 93.9431 22.981L93.9954 22.1878ZM97.8328 25.2948C97.8328 24.3413 97.5421 23.574 96.8582 23.0392C96.2008 22.5251 95.2368 22.2731 93.9965 22.1878L93.942 22.981C95.1312 23.0627 95.9003 23.2994 96.3685 23.6655C96.8103 24.011 97.0378 24.5154 97.0378 25.2948H97.8328ZM93.8189 28.6571C95.1432 28.6571 96.1658 28.4499 96.855 27.8848C97.5655 27.3025 97.8328 26.418 97.8328 25.2948H97.0378C97.0378 26.3055 96.7982 26.9035 96.351 27.27C95.8827 27.6539 95.0971 27.8621 93.8189 27.8621V28.6571ZM90.3665 28.1426C91.3279 28.4694 92.869 28.6571 93.8189 28.6571V27.8621C92.9282 27.8621 91.4786 27.681 90.6223 27.3899L90.3665 28.1426ZM90.2879 28.1159L90.3667 28.1427L90.6221 27.3898L90.5432 27.3631L90.2879 28.1159ZM90.4556 26.3416L90.0378 27.6157L90.7933 27.8634L91.211 26.5893L90.4556 26.3416ZM91.0846 26.1435L90.9993 26.1043L90.6673 26.8267L90.7526 26.8659L91.0846 26.1435ZM93.8185 26.625C93.368 26.625 92.8204 26.5688 92.3092 26.4776C91.792 26.3852 91.3454 26.2628 91.084 26.1432L90.7532 26.8661C91.1056 27.0274 91.6297 27.1638 92.1695 27.2602C92.7153 27.3577 93.3108 27.42 93.8185 27.42V26.625ZM95.5835 25.404C95.5835 26.0302 95.4275 26.2692 95.2323 26.3962C94.9854 26.5568 94.5589 26.625 93.8185 26.625V27.42C94.5429 27.42 95.1977 27.3671 95.6658 27.0626C96.1857 26.7244 96.3785 26.1542 96.3785 25.404H95.5835ZM93.7789 24.2896C94.6791 24.3638 95.1167 24.52 95.3322 24.692C95.5091 24.8331 95.5835 25.0246 95.5835 25.404H96.3785C96.3785 24.9198 96.28 24.4312 95.8281 24.0706C95.4147 23.7407 94.7676 23.5734 93.8442 23.4973L93.7789 24.2896ZM89.9134 21.3639C89.9134 21.999 90.0275 22.7102 90.6367 23.2771C91.2268 23.8261 92.2131 24.1742 93.7823 24.2899L93.8408 23.497C92.3336 23.3859 91.5695 23.0591 91.1783 22.6951C90.8063 22.3489 90.7084 21.9087 90.7084 21.3639H89.9134ZM94.0181 18.0379C92.6903 18.0379 91.6519 18.2585 90.9435 18.8181C90.2125 19.3956 89.9134 20.2666 89.9134 21.3639H90.7084C90.7084 20.4088 90.9635 19.8155 91.4364 19.4419C91.9319 19.0504 92.7472 18.8329 94.0181 18.8329V18.0379ZM97.1554 18.5272C96.0411 18.2145 94.9283 18.0379 94.0181 18.0379V18.8329C94.8371 18.8329 95.8757 18.9938 96.9406 19.2926L97.1554 18.5272ZM97.2425 18.5518L97.1559 18.5273L96.9401 19.2925L97.0268 19.3169L97.2425 18.5518ZM97.0514 20.357L97.5093 19.0673L96.7601 18.8014L96.3022 20.091L97.0514 20.357ZM96.4506 20.5623L96.5317 20.5941L96.8219 19.854L96.7407 19.8221L96.4506 20.5623ZM94.0181 20.0885C94.7752 20.0885 95.69 20.2653 96.4511 20.5625L96.7402 19.8219C95.893 19.4911 94.8804 19.2935 94.0181 19.2935V20.0885ZM92.1627 21.2555C92.1627 20.6528 92.3148 20.4318 92.5137 20.311C92.7742 20.1528 93.2272 20.0885 94.0181 20.0885V19.2935C93.251 19.2935 92.5775 19.3422 92.101 19.6316C91.563 19.9584 91.3677 20.5197 91.3677 21.2555H92.1627Z" fill="black"/>
<path fill-rule="evenodd" clip-rule="evenodd" d="M1 15.3511C1 7.7761 7.16214 1.6135 14.7371 1.61304V1.6135C22.312 1.6135 28.4746 7.7761 28.4746 15.3506C28.4746 22.9255 22.312 29.0881 14.7371 29.0881C7.16214 29.0881 1 22.9255 1 15.3511ZM16.333 8.50968C16.9762 7.02586 17.874 6.8451 18.2719 6.8451V6.84464C18.286 6.84468 18.3002 6.84499 18.3143 6.84557C18.7777 6.85571 19.6437 7.09733 20.2154 8.59636L25.134 21.5072C26.2422 19.6446 26.8268 17.5174 26.8262 15.3501C26.8262 8.68443 21.4028 3.26144 14.7371 3.26144C8.07097 3.26144 2.64843 8.68443 2.64843 15.3501C2.6476 17.4538 3.19764 19.5211 4.24384 21.3462L9.14579 8.68074C9.72494 7.18355 10.5913 6.94747 11.0557 6.94009H11.0787C11.5384 6.94009 12.4012 7.15865 13.02 8.62034L14.6338 12.4323L16.333 8.50968ZM14.6163 16.62L12.937 20.496C12.7207 20.9954 12.711 21.4381 12.9107 21.7419C13.1099 22.0453 13.5198 22.2122 14.0643 22.2122H15.1018C15.6478 22.2122 16.0609 22.043 16.2643 21.7359C16.4681 21.4288 16.463 20.982 16.25 20.4794L14.6163 16.62ZM14.7371 27.4388C11.0953 27.4388 7.68917 25.8176 5.37676 22.9869L10.6831 9.27563C10.85 8.84404 11.0059 8.67297 11.0778 8.61211C11.1562 8.6739 11.3245 8.8445 11.502 9.26318L13.7282 14.5225L11.4245 19.8413C10.9865 20.8525 11.0257 21.8747 11.5324 22.6471C12.0397 23.419 12.9619 23.8616 14.0643 23.8616H15.1018C16.2025 23.8616 17.127 23.419 17.6388 22.6466C18.1506 21.8747 18.1972 20.8506 17.7679 19.8371L15.5219 14.5299L17.8458 9.16543C18.0243 8.75367 18.1921 8.56923 18.2714 8.50928C18.3383 8.56231 18.5015 8.72923 18.6744 9.18387L23.9863 23.1257C21.6776 25.8683 18.312 27.4393 14.7371 27.4393V27.4388Z" fill="black"/>
<path d="M14.7371 1.61304H15.1346V1.21551L14.7371 1.21554L14.7371 1.61304ZM14.7371 1.6135H14.3396V2.011H14.7371V1.6135ZM18.2719 6.8451V7.2426H18.6694V6.8451H18.2719ZM16.333 8.50968L15.9683 8.35158L15.9682 8.35168L16.333 8.50968ZM18.2719 6.84464L18.273 6.44715L17.8744 6.44599V6.84464H18.2719ZM18.3143 6.84557L18.2982 7.24281L18.3056 7.24297L18.3143 6.84557ZM20.2154 8.59636L20.5869 8.45485L20.5868 8.4547L20.2154 8.59636ZM25.134 21.5072L24.7625 21.6487L25.0552 22.4169L25.4756 21.7104L25.134 21.5072ZM26.8262 15.3501H26.4287V15.3502L26.8262 15.3501ZM2.64843 15.3501L3.04593 15.3503V15.3501H2.64843ZM4.24384 21.3462L3.89898 21.5439L4.31361 22.2673L4.61454 21.4897L4.24384 21.3462ZM9.14579 8.68074L9.5165 8.82422L9.51652 8.82415L9.14579 8.68074ZM11.0557 6.94009V6.54254L11.0494 6.54264L11.0557 6.94009ZM13.02 8.62034L12.6539 8.7753L12.6539 8.77531L13.02 8.62034ZM14.6338 12.4323L14.2678 12.5872L14.6296 13.4419L14.9986 12.5903L14.6338 12.4323ZM12.937 20.496L12.5722 20.338L12.5722 20.3381L12.937 20.496ZM14.6163 16.62L14.9823 16.4651L14.6205 15.6103L14.2515 16.462L14.6163 16.62ZM12.9107 21.7419L13.243 21.5238L13.2429 21.5236L12.9107 21.7419ZM16.2643 21.7359L15.9331 21.5161L15.9328 21.5165L16.2643 21.7359ZM16.25 20.4794L15.8839 20.6344L15.884 20.6346L16.25 20.4794ZM5.37676 22.9869L5.00605 22.8434L4.92255 23.0592L5.06892 23.2384L5.37676 22.9869ZM14.7371 27.4388H15.1346V27.0413H14.7371V27.4388ZM10.6831 9.27563L11.0538 9.4191L11.0538 9.41901L10.6831 9.27563ZM11.0778 8.61211L11.3239 8.29993L11.0689 8.09894L10.821 8.30866L11.0778 8.61211ZM11.502 9.26318L11.8681 9.10823L11.868 9.10801L11.502 9.26318ZM13.7282 14.5225L14.093 14.6805L14.1606 14.5243L14.0943 14.3675L13.7282 14.5225ZM11.4245 19.8413L11.7893 19.9993L11.7893 19.9993L11.4245 19.8413ZM11.5324 22.6471L11.2001 22.8651L11.2002 22.8654L11.5324 22.6471ZM17.6388 22.6466L17.3075 22.4269L17.3074 22.427L17.6388 22.6466ZM17.7679 19.8371L17.4018 19.992L17.4019 19.9922L17.7679 19.8371ZM15.5219 14.5299L15.1571 14.3719L15.0895 14.528L15.1558 14.6848L15.5219 14.5299ZM17.8458 9.16543L17.4811 9.00737L17.4811 9.00742L17.8458 9.16543ZM18.2714 8.50928L18.5184 8.19784L18.2773 8.00659L18.0317 8.19217L18.2714 8.50928ZM18.6744 9.18387L18.3029 9.32518L18.303 9.3254L18.6744 9.18387ZM23.9863 23.1257L24.2904 23.3817L24.441 23.2027L24.3577 22.9842L23.9863 23.1257ZM14.7371 27.4393H14.3396V27.8368H14.7371V27.4393ZM14.7371 1.21554C6.94259 1.21601 0.6025 7.55658 0.6025 15.3511H1.3975C1.3975 7.99562 7.38169 2.01098 14.7371 2.01054L14.7371 1.21554ZM15.1346 1.6135V1.61304H14.3396V1.6135H15.1346ZM28.8721 15.3506C28.8721 7.55656 22.5316 1.216 14.7371 1.216V2.011C22.0925 2.011 28.0771 7.99564 28.0771 15.3506H28.8721ZM14.7371 29.4856C22.5316 29.4856 28.8721 23.1451 28.8721 15.3506H28.0771C28.0771 22.706 22.0925 28.6906 14.7371 28.6906V29.4856ZM0.6025 15.3511C0.6025 23.1451 6.9426 29.4856 14.7371 29.4856V28.6906C7.38168 28.6906 1.3975 22.706 1.3975 15.3511H0.6025ZM18.2719 6.4476C18.0117 6.4476 17.6088 6.50729 17.1777 6.78776C16.7461 7.06846 16.315 7.55173 15.9683 8.35158L16.6977 8.66778C16.9942 7.9838 17.3335 7.63478 17.6112 7.45416C17.8892 7.27329 18.1341 7.2426 18.2719 7.2426V6.4476ZM17.8744 6.84464V6.8451H18.6694V6.84464H17.8744ZM18.3304 6.44839C18.3113 6.44762 18.2922 6.4472 18.273 6.44715L18.2707 7.24214C18.2799 7.24217 18.289 7.24237 18.2982 7.24274L18.3304 6.44839ZM20.5868 8.4547C20.2794 7.64873 19.8782 7.14366 19.4565 6.84005C19.0341 6.53591 18.62 6.45466 18.323 6.44816L18.3056 7.24297C18.472 7.24661 18.7226 7.29124 18.992 7.48521C19.2621 7.6797 19.5797 8.04496 19.844 8.73802L20.5868 8.4547ZM25.5054 21.3657L20.5869 8.45485L19.844 8.73787L24.7625 21.6487L25.5054 21.3657ZM26.4287 15.3502C26.4293 17.4459 25.864 19.5029 24.7924 21.3039L25.4756 21.7104C26.6204 19.7864 27.2243 17.5889 27.2237 15.35L26.4287 15.3502ZM14.7371 3.65894C21.1832 3.65894 26.4287 8.90399 26.4287 15.3501H27.2237C27.2237 8.46488 21.6223 2.86394 14.7371 2.86394V3.65894ZM3.04593 15.3501C3.04593 8.90396 8.29051 3.65894 14.7371 3.65894V2.86394C7.85143 2.86394 2.25093 8.46491 2.25093 15.3501H3.04593ZM4.5887 21.1486C3.57702 19.3836 3.04513 17.3846 3.04593 15.3503L2.25093 15.3499C2.25007 17.5231 2.81826 19.6586 3.89898 21.5439L4.5887 21.1486ZM8.77509 8.53727L3.87314 21.2028L4.61454 21.4897L9.5165 8.82422L8.77509 8.53727ZM11.0494 6.54264C10.752 6.54737 10.3373 6.62599 9.91323 6.92793C9.48997 7.2293 9.0864 7.73246 8.77506 8.53734L9.51652 8.82415C9.78432 8.13183 10.1035 7.76836 10.3743 7.57554C10.6443 7.3833 10.895 7.34019 11.062 7.33754L11.0494 6.54264ZM11.0787 6.54259H11.0557V7.33759H11.0787V6.54259ZM13.386 8.46537C13.0532 7.67934 12.6392 7.19186 12.2126 6.90295C11.7851 6.61349 11.3734 6.54259 11.0787 6.54259V7.33759C11.2438 7.33759 11.4933 7.37598 11.7668 7.56122C12.0412 7.74701 12.3679 8.09965 12.6539 8.7753L13.386 8.46537ZM14.9999 12.2773L13.386 8.46537L12.6539 8.77531L14.2678 12.5872L14.9999 12.2773ZM15.9682 8.35168L14.2691 12.2743L14.9986 12.5903L16.6977 8.66768L15.9682 8.35168ZM13.3017 20.6541L14.981 16.7781L14.2515 16.462L12.5722 20.338L13.3017 20.6541ZM13.2429 21.5236C13.1487 21.3804 13.1104 21.0958 13.3017 20.654L12.5722 20.3381C12.331 20.895 12.2733 21.4957 12.5785 21.9602L13.2429 21.5236ZM14.0643 21.8147C13.5823 21.8147 13.3366 21.6664 13.243 21.5238L12.5784 21.9601C12.8831 22.4242 13.4573 22.6097 14.0643 22.6097V21.8147ZM15.1018 21.8147H14.0643V22.6097H15.1018V21.8147ZM15.9328 21.5165C15.8343 21.6653 15.583 21.8147 15.1018 21.8147V22.6097C15.7125 22.6097 16.2875 22.4207 16.5957 21.9554L15.9328 21.5165ZM15.884 20.6346C16.0716 21.0773 16.0319 21.3672 15.9331 21.5161L16.5955 21.9557C16.9042 21.4905 16.8544 20.8868 16.6159 20.3243L15.884 20.6346ZM14.2502 16.775L15.8839 20.6344L16.616 20.3245L14.9823 16.4651L14.2502 16.775ZM5.06892 23.2384C7.45641 26.161 10.9753 27.8363 14.7371 27.8363V27.0413C11.2153 27.0413 7.92193 25.4742 5.6846 22.7354L5.06892 23.2384ZM10.3124 9.13217L5.00605 22.8434L5.74747 23.1304L11.0538 9.4191L10.3124 9.13217ZM10.821 8.30866C10.6845 8.42421 10.4958 8.65806 10.3124 9.13225L11.0538 9.41901C11.2043 9.03003 11.3273 8.92173 11.3346 8.91555L10.821 8.30866ZM11.868 9.10801C11.6705 8.64228 11.4659 8.41192 11.3239 8.29993L10.8317 8.92428C10.8464 8.93587 10.9785 9.04672 11.136 9.41835L11.868 9.10801ZM14.0943 14.3675L11.8681 9.10823L11.136 9.41813L13.3621 14.6774L14.0943 14.3675ZM11.7893 19.9993L14.093 14.6805L13.3634 14.3645L11.0598 19.6833L11.7893 19.9993ZM11.8648 22.429C11.4465 21.7914 11.3926 20.9151 11.7893 19.9993L11.0598 19.6833C10.5804 20.7899 10.6049 21.958 11.2001 22.8651L11.8648 22.429ZM14.0643 23.4641C13.0659 23.4641 12.2834 23.066 11.8646 22.4288L11.2002 22.8654C11.7959 23.7719 12.8578 24.2591 14.0643 24.2591V23.4641ZM15.1018 23.4641H14.0643V24.2591H15.1018V23.4641ZM17.3074 22.427C16.8839 23.0661 16.0981 23.4641 15.1018 23.4641V24.2591C16.3068 24.2591 17.37 23.7718 17.9701 22.8662L17.3074 22.427ZM17.4019 19.9922C17.7906 20.9098 17.7308 21.7886 17.3075 22.4269L17.9701 22.8663C18.5704 21.9609 18.6038 20.7915 18.1339 19.6821L17.4019 19.9922ZM15.1558 14.6848L17.4018 19.992L18.134 19.6822L15.8879 14.3749L15.1558 14.6848ZM17.4811 9.00742L15.1571 14.3719L15.8866 14.6879L18.2106 9.32344L17.4811 9.00742ZM18.0317 8.19217C17.8774 8.30881 17.6745 8.56113 17.4811 9.00737L18.2105 9.32349C18.2905 9.1391 18.3642 9.0145 18.4205 8.93468C18.479 8.85187 18.5136 8.82453 18.5111 8.8264L18.0317 8.19217ZM19.046 9.04257C18.8559 8.54282 18.6572 8.30788 18.5184 8.19784L18.0244 8.82072C18.0194 8.81674 18.1471 8.91563 18.3029 9.32518L19.046 9.04257ZM24.3577 22.9842L19.0459 9.04235L18.303 9.3254L23.6148 23.2672L24.3577 22.9842ZM14.7371 27.8368C18.4298 27.8368 21.9065 26.2136 24.2904 23.3817L23.6822 22.8697C21.4486 25.523 18.1942 27.0418 14.7371 27.0418V27.8368ZM14.3396 27.4388V27.4393H15.1346V27.4388H14.3396Z" fill="black"/>
</svg>
