<svg width="77" height="29" viewBox="0 0 77 29" fill="none" xmlns="http://www.w3.org/2000/svg">
<path fill-rule="evenodd" clip-rule="evenodd" d="M36.5677 8.51997L36.4903 0H39.1793H41.8693L41.8749 4.67642L41.8806 9.35276L42.3228 8.3253C43.9349 4.58317 49.4438 3.70905 52.6512 6.68627C54.111 8.04132 54.875 9.44043 55.3705 11.6644C56.2801 15.7471 54.9536 20.036 52.1528 22.0681C49.7566 23.8068 45.5848 24.3589 42.5587 23.3383C39.9576 22.4612 38.4329 21.0741 37.3264 18.5774L36.6451 17.0399L36.5677 8.51997ZM61.5083 5.45656C62.6691 4.8562 63.1995 4.74246 64.8394 4.74145V4.74141C67.3625 4.73951 68.8373 5.4655 69.9962 7.27828L70.7859 8.51346V6.81935V5.12479H73.4587H76.1316V14.3494V23.574H73.4587H70.7859V21.7514V19.9286L69.9962 21.1638C68.8753 22.9173 67.3804 23.6771 64.8398 23.7842C63.0558 23.8594 62.7598 23.7982 61.3792 23.0646C58.9708 21.7847 57.6012 19.5104 57.2399 16.1916C56.6807 11.0546 58.2333 7.14979 61.5083 5.45656ZM18.5923 5.05775C17.5665 5.05546 16.8423 5.09585 16.8425 5.16488C16.843 5.32273 17.4128 6.86267 21.8304 18.6414L23.584 23.3179H21.064H18.5439V25.7521V28.1864H22.3064H26.0688L26.8103 27.4817C27.551 26.7777 28.0942 25.4174 33.8916 9.73715C34.6993 7.55266 35.415 5.62128 35.4823 5.44512C35.5761 5.19983 34.9473 5.12499 32.8005 5.12499H29.9962L28.0969 11.3053L26.1976 17.4855L24.3809 11.3193L22.5638 5.153L19.703 5.07498C19.3098 5.06228 18.9339 5.05593 18.592 5.05593L18.5923 5.05775ZM50.2702 12.9622C49.7157 10.9507 48.0959 9.73142 46.0013 9.74412H45.9988C44.5487 9.75413 42.6545 11.1693 42.1272 12.6363C40.7632 16.4325 44.3492 20.1236 47.8866 18.5649C49.2264 17.9746 49.8599 17.2168 50.2762 15.7062C50.6169 14.4799 50.616 14.2157 50.2702 12.9622ZM66.7305 9.76954C69.0114 9.75684 70.3589 10.8828 70.7403 13.1152C71.0947 15.1908 70.5261 16.8429 69.056 17.9998C68.3635 18.5449 66.1495 18.8098 65.1464 18.4682C63.1554 17.7901 62.1697 16.1556 62.3312 13.8003C62.5041 11.2731 63.7984 9.952 66.2622 9.78655C66.4222 9.77385 66.5779 9.7675 66.7302 9.7675L66.7305 9.76954ZM5.36562 14.543L5.3676 14.4244L10.5858 14.4242C10.6826 18.4557 10.8745 18.5236 14.1761 18.6636L16.6163 18.767L16.5475 21.1071L16.4787 23.4474L13.9273 23.4855C12.5241 23.5064 10.8838 23.4329 10.2825 23.3232C8.95608 23.0807 7.42959 22.4297 6.79387 21.8358C6.53554 21.5945 6.09424 20.8785 5.81294 20.2443C5.33981 19.1872 5.3054 18.7124 5.36562 14.543Z" fill="black"/>
<rect opacity="0.780018" y="4.98727" width="5.30277" height="4.89601" fill="black"/>
<rect opacity="0.780018" width="5.30277" height="4.89601" transform="matrix(-1 0 0 1 10.6057 4.98727)" fill="black"/>
<rect x="10.6057" y="4.98727" width="5.30277" height="4.89601" fill="black"/>
<rect x="10.6057" y="14.7793" width="5.30277" height="4.89601" transform="rotate(180 10.6057 14.7793)" fill="black"/>
<rect x="10.6057" y="4.98727" width="5.30277" height="4.89601" transform="rotate(180 10.6057 4.98727)" fill="black"/>
</svg>
