<svg width="305" height="124" viewBox="0 0 305 124" fill="none" xmlns="http://www.w3.org/2000/svg">
<g filter="url(#filter0_d_54_176)">
<path d="M225.173 0.915039H44.1642C20.2802 0.915039 0.918335 20.2769 0.918335 44.1609C0.918335 68.0449 20.2802 87.4067 44.1642 87.4067H225.173C249.057 87.4067 268.418 68.0449 268.418 44.1609C268.418 20.2769 249.057 0.915039 225.173 0.915039Z" fill="white"/>
</g>
<path d="M90.0613 36.842L94.854 50.3062L99.7136 36.842H101.92L96.1469 52.5576H93.5834L87.8321 36.842H90.0613ZM108.985 40.1634C110.174 40.1634 111.177 40.4607 111.995 41.0551C112.827 41.6496 113.406 42.4446 113.733 43.4403V40.3195H115.762V52.5576H113.733V49.4368C113.406 50.4325 112.827 51.2275 111.995 51.822C111.177 52.4164 110.174 52.7137 108.985 52.7137C107.9 52.7137 106.934 52.461 106.087 51.9557C105.24 51.4505 104.571 50.7297 104.081 49.7935C103.605 48.8423 103.368 47.7278 103.368 46.4497C103.368 45.1716 103.605 44.0571 104.081 43.1059C104.571 42.1548 105.24 41.4266 106.087 40.9214C106.934 40.4161 107.9 40.1634 108.985 40.1634ZM109.565 41.9691C108.316 41.9691 107.313 42.3703 106.555 43.1728C105.812 43.9605 105.441 45.0528 105.441 46.4497C105.441 47.8466 105.812 48.9464 106.555 49.7489C107.313 50.5365 108.316 50.9303 109.565 50.9303C110.367 50.9303 111.081 50.7446 111.705 50.373C112.344 50.0015 112.842 49.4814 113.198 48.8126C113.555 48.129 113.733 47.3414 113.733 46.4497C113.733 45.558 113.555 44.7704 113.198 44.0868C112.842 43.4032 112.344 42.883 111.705 42.5264C111.081 42.1548 110.367 41.9691 109.565 41.9691ZM121.019 36.0618V52.5576H118.99V36.0618H121.019ZM123.924 36.7305C123.924 36.359 124.05 36.0618 124.302 35.8389C124.555 35.6011 124.89 35.4822 125.306 35.4822C125.722 35.4822 126.056 35.6011 126.309 35.8389C126.561 36.0618 126.688 36.359 126.688 36.7305C126.688 37.1021 126.561 37.4067 126.309 37.6445C126.056 37.8674 125.722 37.9789 125.306 37.9789C124.89 37.9789 124.555 37.8674 124.302 37.6445C124.05 37.4067 123.924 37.1021 123.924 36.7305ZM126.309 40.3195V52.5576H124.28V40.3195H126.309ZM134.586 40.1634C135.775 40.1634 136.778 40.4607 137.595 41.0551C138.427 41.6496 139.007 42.4446 139.334 43.4403V36.0618H141.362V52.5576H139.334V49.4368C139.007 50.4325 138.427 51.2275 137.595 51.822C136.778 52.4164 135.775 52.7137 134.586 52.7137C133.501 52.7137 132.535 52.461 131.688 51.9557C130.841 51.4505 130.172 50.7297 129.682 49.7935C129.206 48.8423 128.968 47.7278 128.968 46.4497C128.968 45.1716 129.206 44.0571 129.682 43.1059C130.172 42.1548 130.841 41.4266 131.688 40.9214C132.535 40.4161 133.501 40.1634 134.586 40.1634ZM135.165 41.9691C133.917 41.9691 132.914 42.3703 132.156 43.1728C131.413 43.9605 131.041 45.0528 131.041 46.4497C131.041 47.8466 131.413 48.9464 132.156 49.7489C132.914 50.5365 133.917 50.9303 135.165 50.9303C135.968 50.9303 136.681 50.7446 137.305 50.373C137.944 50.0015 138.442 49.4814 138.799 48.8126C139.156 48.129 139.334 47.3414 139.334 46.4497C139.334 45.558 139.156 44.7704 138.799 44.0868C138.442 43.4032 137.944 42.883 137.305 42.5264C136.681 42.1548 135.968 41.9691 135.165 41.9691ZM149.607 40.1634C150.795 40.1634 151.799 40.4607 152.616 41.0551C153.448 41.6496 154.028 42.4446 154.355 43.4403V40.3195H156.383V52.5576H154.355V49.4368C154.028 50.4325 153.448 51.2275 152.616 51.822C151.799 52.4164 150.795 52.7137 149.607 52.7137C148.522 52.7137 147.556 52.461 146.709 51.9557C145.862 51.4505 145.193 50.7297 144.702 49.7935C144.227 48.8423 143.989 47.7278 143.989 46.4497C143.989 45.1716 144.227 44.0571 144.702 43.1059C145.193 42.1548 145.862 41.4266 146.709 40.9214C147.556 40.4161 148.522 40.1634 149.607 40.1634ZM150.186 41.9691C148.938 41.9691 147.935 42.3703 147.177 43.1728C146.434 43.9605 146.062 45.0528 146.062 46.4497C146.062 47.8466 146.434 48.9464 147.177 49.7489C147.935 50.5365 148.938 50.9303 150.186 50.9303C150.989 50.9303 151.702 50.7446 152.326 50.373C152.965 50.0015 153.463 49.4814 153.82 48.8126C154.176 48.129 154.355 47.3414 154.355 46.4497C154.355 45.558 154.176 44.7704 153.82 44.0868C153.463 43.4032 152.965 42.883 152.326 42.5264C151.702 42.1548 150.989 41.9691 150.186 41.9691ZM165.452 50.7743V52.5576H163.936C162.688 52.5576 161.752 52.2604 161.127 51.666C160.518 51.0715 160.214 50.0758 160.214 48.6789V42.0805H158.386V40.3195H160.214V37.2655H162.264V40.3195H165.43V42.0805H162.264V48.7235C162.264 49.5111 162.406 50.0535 162.688 50.3507C162.985 50.6331 163.49 50.7743 164.204 50.7743H165.452ZM167.571 36.7305C167.571 36.359 167.697 36.0618 167.95 35.8389C168.202 35.6011 168.537 35.4822 168.953 35.4822C169.369 35.4822 169.703 35.6011 169.956 35.8389C170.209 36.0618 170.335 36.359 170.335 36.7305C170.335 37.1021 170.209 37.4067 169.956 37.6445C169.703 37.8674 169.369 37.9789 168.953 37.9789C168.537 37.9789 168.202 37.8674 167.95 37.6445C167.697 37.4067 167.571 37.1021 167.571 36.7305ZM169.956 40.3195V52.5576H167.927V40.3195H169.956ZM179.66 40.1189C181.086 40.1189 182.238 40.5796 183.115 41.5009C183.992 42.4075 184.43 43.7227 184.43 45.4466V52.5576H182.402V45.6249C182.402 44.4063 182.089 43.47 181.465 42.8162C180.841 42.1623 179.994 41.8353 178.924 41.8353C177.809 41.8353 176.918 42.1994 176.249 42.9276C175.58 43.6409 175.246 44.6887 175.246 46.0707V52.5576H173.217V40.3195H175.246V43.2174C175.558 42.2217 176.108 41.4564 176.896 40.9214C177.698 40.3864 178.619 40.1189 179.66 40.1189ZM192.557 40.1634C193.746 40.1634 194.749 40.4607 195.567 41.0551C196.399 41.6496 196.978 42.4446 197.305 43.4403V40.3195H199.334V52.7582C199.334 53.8877 199.096 54.8908 198.62 55.7676C198.145 56.6444 197.476 57.328 196.614 57.8185C195.752 58.3089 194.749 58.5541 193.605 58.5541C191.955 58.5541 190.61 58.1528 189.57 57.3503C188.53 56.5627 187.868 55.4927 187.586 54.1403H189.592C189.83 54.9577 190.276 55.5967 190.93 56.0574C191.599 56.533 192.453 56.7707 193.493 56.7707C194.593 56.7707 195.5 56.4141 196.213 55.7007C196.941 55.0023 197.305 54.0214 197.305 52.7582V49.4368C196.978 50.4325 196.399 51.2275 195.567 51.822C194.749 52.4164 193.746 52.7137 192.557 52.7137C191.472 52.7137 190.506 52.461 189.659 51.9557C188.812 51.4505 188.143 50.7297 187.653 49.7935C187.177 48.8423 186.94 47.7278 186.94 46.4497C186.94 45.1716 187.177 44.0571 187.653 43.1059C188.143 42.1548 188.812 41.4266 189.659 40.9214C190.506 40.4161 191.472 40.1634 192.557 40.1634ZM193.137 41.9691C191.888 41.9691 190.885 42.3703 190.127 43.1728C189.384 43.9605 189.013 45.0528 189.013 46.4497C189.013 47.8466 189.384 48.9464 190.127 49.7489C190.885 50.5365 191.888 50.9303 193.137 50.9303C193.939 50.9303 194.653 50.7446 195.277 50.373C195.916 50.0015 196.414 49.4814 196.77 48.8126C197.127 48.129 197.305 47.3414 197.305 46.4497C197.305 45.558 197.127 44.7704 196.77 44.0868C196.414 43.4032 195.916 42.883 195.277 42.5264C194.653 42.1548 193.939 41.9691 193.137 41.9691ZM208.314 50.1724V52.5576H205.861V50.1724H208.314ZM212.571 50.1724V52.5576H210.119V50.1724H212.571ZM204.056 50.1724V52.5576H201.604V50.1724H204.056Z" fill="black"/>
<path d="M44.1633 74.0324C60.6605 74.0324 74.0341 60.6588 74.0341 44.1616C74.0341 27.6644 60.6605 14.2908 44.1633 14.2908C27.6661 14.2908 14.2925 27.6644 14.2925 44.1616C14.2925 60.6588 27.6661 74.0324 44.1633 74.0324Z" fill="#E8EDF0"/>
<path d="M44.1632 72.6951C59.9217 72.6951 72.6966 59.9203 72.6966 44.1618C72.6966 28.4032 59.9217 15.6284 44.1632 15.6284C28.4047 15.6284 15.6299 28.4032 15.6299 44.1618C15.6299 59.9203 28.4047 72.6951 44.1632 72.6951Z" stroke="#2A99CB" stroke-width="2.675"/>
<path d="M39.7152 40.7685H34.5507V44.1354C34.7885 43.8121 35.1309 43.5553 35.5779 43.365C36.0249 43.1748 36.5147 43.0797 37.0474 43.0797C37.7607 43.0797 38.3504 43.2319 38.8164 43.5362C39.292 43.8311 39.6391 44.2258 39.8579 44.7204C40.0862 45.2054 40.2003 45.7476 40.2003 46.3468C40.2003 47.3835 39.9102 48.23 39.33 48.8862C38.7499 49.5425 37.8986 49.8706 36.7763 49.8706C35.7681 49.8706 34.9454 49.5996 34.3082 49.0574C33.6709 48.5058 33.3143 47.7687 33.2382 46.8461H34.5222C34.6268 47.4358 34.8693 47.8971 35.2498 48.23C35.6397 48.5534 36.1295 48.715 36.7192 48.715C37.4516 48.715 38.0032 48.4963 38.3742 48.0588C38.7451 47.6213 38.9306 47.0458 38.9306 46.3325C38.9306 45.6382 38.7403 45.0961 38.3599 44.7061C37.9795 44.3162 37.4421 44.1212 36.7478 44.1212C36.2532 44.1212 35.8204 44.2306 35.4495 44.4493C35.0786 44.6586 34.798 44.9439 34.6078 45.3053H33.3523V39.6129H39.7152V40.7685ZM41.7298 44.7061C41.7298 46.323 41.9962 47.5832 42.5288 48.4868C43.0614 49.3903 43.984 49.8421 45.2965 49.8421C46.609 49.8421 47.5316 49.3903 48.0642 48.4868C48.6064 47.5832 48.8774 46.323 48.8774 44.7061C48.8774 43.1082 48.6064 41.8575 48.0642 40.954C47.5316 40.0504 46.609 39.5986 45.2965 39.5986C43.984 39.5986 43.0614 40.0504 42.5288 40.954C41.9962 41.848 41.7298 43.0987 41.7298 44.7061ZM47.5934 44.7061C47.5934 45.5336 47.5316 46.2279 47.408 46.789C47.2938 47.3407 47.0703 47.783 46.7374 48.1158C46.4046 48.4487 45.9242 48.6152 45.2965 48.6152C44.6783 48.6152 44.2027 48.4487 43.8698 48.1158C43.537 47.783 43.3087 47.3407 43.185 46.789C43.0709 46.2279 43.0138 45.5336 43.0138 44.7061C43.0138 43.8882 43.0709 43.2034 43.185 42.6517C43.3087 42.1001 43.537 41.6626 43.8698 41.3392C44.2027 41.0063 44.6783 40.8398 45.2965 40.8398C45.9242 40.8398 46.4046 41.0063 46.7374 41.3392C47.0703 41.6626 47.2938 42.1001 47.408 42.6517C47.5316 43.2034 47.5934 43.8882 47.5934 44.7061ZM52.2338 39.5986C52.833 39.5986 53.3276 39.7936 53.7175 40.1836C54.117 40.564 54.3167 41.0729 54.3167 41.7101C54.3167 42.3474 54.1217 42.8562 53.7318 43.2366C53.3418 43.6171 52.8425 43.8073 52.2338 43.8073C51.6251 43.8073 51.1257 43.6171 50.7358 43.2366C50.3458 42.8562 50.1509 42.3474 50.1509 41.7101C50.1509 41.0729 50.3458 40.564 50.7358 40.1836C51.1257 39.7936 51.6251 39.5986 52.2338 39.5986ZM57.9119 39.727L52.1339 49.7993H50.8499L56.6279 39.727H57.9119ZM51.0639 41.7101C51.0639 42.0906 51.1685 42.3997 51.3778 42.6374C51.5965 42.8752 51.8771 42.9941 52.2195 42.9941C52.5714 42.9941 52.8568 42.8752 53.0755 42.6374C53.2943 42.3997 53.4037 42.0906 53.4037 41.7101C53.4037 41.3297 53.2943 41.0206 53.0755 40.7828C52.8568 40.545 52.5714 40.4261 52.2195 40.4261C51.8771 40.4261 51.5965 40.545 51.3778 40.7828C51.1685 41.0206 51.0639 41.3297 51.0639 41.7101ZM56.5423 45.719C57.151 45.719 57.6456 45.9093 58.0261 46.2897C58.416 46.6702 58.611 47.179 58.611 47.8162C58.611 48.4535 58.416 48.9671 58.0261 49.357C57.6456 49.7375 57.151 49.9277 56.5423 49.9277C55.9431 49.9277 55.4438 49.7375 55.0443 49.357C54.6544 48.9671 54.4594 48.4535 54.4594 47.8162C54.4594 47.179 54.6544 46.6702 55.0443 46.2897C55.4343 45.9093 55.9336 45.719 56.5423 45.719ZM55.3725 47.8162C55.3725 48.1967 55.4771 48.5058 55.6863 48.7436C55.9051 48.9814 56.1904 49.1002 56.5423 49.1002C56.8847 49.1002 57.1605 48.9814 57.3698 48.7436C57.5885 48.5058 57.6979 48.1967 57.6979 47.8162C57.6979 47.4358 57.5885 47.1267 57.3698 46.8889C57.1605 46.6511 56.8847 46.5322 56.5423 46.5322C56.1904 46.5322 55.9051 46.6511 55.6863 46.8889C55.4771 47.1267 55.3725 47.4358 55.3725 47.8162Z" fill="black" fill-opacity="0.3"/>
<defs>
<filter id="filter0_d_54_176" x="0.918335" y="0.915039" width="303.167" height="122.158" filterUnits="userSpaceOnUse" color-interpolation-filters="sRGB">
<feFlood flood-opacity="0" result="BackgroundImageFix"/>
<feColorMatrix in="SourceAlpha" type="matrix" values="0 0 0 0 0 0 0 0 0 0 0 0 0 0 0 0 0 0 127 0" result="hardAlpha"/>
<feOffset dx="17.8333" dy="17.8333"/>
<feGaussianBlur stdDeviation="8.91667"/>
<feColorMatrix type="matrix" values="0 0 0 0 0.705882 0 0 0 0 0.705882 0 0 0 0 0.705882 0 0 0 0.161 0"/>
<feBlend mode="normal" in2="BackgroundImageFix" result="effect1_dropShadow_54_176"/>
<feBlend mode="normal" in="SourceGraphic" in2="effect1_dropShadow_54_176" result="shape"/>
</filter>
</defs>
</svg>
