<svg width="110" height="32" viewBox="0 0 110 32" fill="none" xmlns="http://www.w3.org/2000/svg">
<path d="M19.5989 0.159241C14.337 0.200818 10.0426 4.59537 9.86375 10.1213H9.77832V31.0559C13.8373 31.055 17.4769 28.4288 18.9353 24.4486C18.8479 24.4486 18.7585 24.4486 18.6691 24.4486C16.5441 24.4515 14.5985 23.1975 13.6379 21.2058C12.6772 19.2142 12.8651 16.824 14.1236 15.0249C15.3822 13.2259 17.4972 12.3242 19.593 12.6933V10.4637H19.6704C25.0614 10.4247 29.4133 5.82399 29.4175 0.159241H19.5989Z" fill="url(#paint0_linear_133_145)"/>
<path d="M18.2528 21.7275L16.5697 20.0846C16.1689 19.6935 15.9321 19.1506 15.9116 18.5755C15.8911 18.0004 16.0885 17.4403 16.4604 17.0186L18.2985 18.8143L23.2664 14.3733C24.1367 13.5969 25.4382 13.7023 26.1855 14.6098L18.2528 21.7275Z" fill="url(#paint1_linear_133_145)"/>
<path d="M9.71394 0.159241C4.33705 0.20491 0.000912201 4.78943 0 10.4296H19.4735V0.159241H9.71394Z" fill="url(#paint2_linear_133_145)"/>
<path d="M12.9827 18.1306C13.0145 18.1284 13.0187 17.8471 13.0852 17.4416C13.1249 17.2003 13.193 16.9139 13.2846 16.6193C13.4396 16.1204 13.6917 15.584 14.0145 15.0959C14.1699 14.8608 14.3443 14.6377 14.5271 14.4336C14.6543 14.2916 14.7846 14.1585 14.9193 14.038C15.1093 13.8682 15.3009 13.7131 15.4978 13.575C16.0689 13.1742 16.6708 12.905 17.2985 12.7461C17.6198 12.6647 18.0638 12.578 18.6355 12.5812C18.7585 12.5819 18.9384 12.5852 19.1711 12.6096C19.2462 12.6174 19.3712 12.6351 19.5458 12.6624C19.5368 11.1997 19.5368 10.4618 19.5458 10.4487C20.3468 9.28575 22.8256 9.65869 23.4545 9.41621C23.582 9.36702 23.5179 8.6511 23.5179 8.25999C23.5179 4.91424 21.941 1.95547 19.5254 0.159411C17.8997 0.159028 12.1618 0.159411 9.56031 0.159411C9.22208 0.167622 8.72055 0.239563 8.51321 0.250051C6.16551 2.05407 4.64062 4.96993 4.64062 8.25999C4.64062 9.01112 4.87306 9.7392 5.33792 10.4442C5.76874 10.4442 7.24089 10.4442 9.75438 10.4442C9.75438 12.3537 9.75438 13.496 9.75438 13.8713C9.75438 15.1119 9.75438 16.5375 9.75438 17.0752C10.9427 17.7229 11.9337 18.0676 12.7567 18.1229C12.8336 18.1281 12.9091 18.1359 12.9827 18.1306Z" fill="url(#paint3_radial_133_145)"/>
<path d="M19.5989 0.159241C14.337 0.200756 10.0426 4.58871 9.86375 10.1064L9.77832 20.5288C9.77832 14.9672 14.0755 10.4587 19.3764 10.4587H19.593H19.6704C25.0653 10.4197 29.4187 5.81955 29.4175 0.159241H19.5989Z" fill="url(#paint4_linear_133_145)"/>
<path d="M45.2447 9.40546H42.9677V21.285C42.9653 23.4146 41.3212 25.1404 39.2923 25.1429V9.40546H33.5977C33.5977 7.41441 35.1354 5.80035 37.0322 5.80035H48.6792C48.6792 7.7914 47.1415 9.40546 45.2447 9.40546Z" fill="#1C1C1E"/>
<path d="M57.4631 11.6528L56.9525 15.2208C56.2938 14.9359 55.5891 14.7859 54.8765 14.7787C53.2857 14.7787 52.1928 15.8 52.1928 17.7851V21.4592C52.1939 22.4133 51.833 23.3287 51.1895 24.0038C50.546 24.6788 49.6728 25.0581 48.7622 25.0581V11.7236H52.0873V13.1826C52.889 11.927 54.1127 11.3654 55.6782 11.3654C56.2845 11.3526 56.8884 11.4498 57.4631 11.6528Z" fill="#1C1C1E"/>
<path d="M96.1614 11.6529L95.6468 15.2208C94.9884 14.936 94.284 14.7859 93.5718 14.7787C91.9817 14.7787 90.8894 15.8 90.8894 17.7852V21.4592C90.8905 22.4133 90.5297 23.3287 89.8865 24.0038C89.2434 24.6788 88.3706 25.0581 87.4604 25.0581V11.7236H90.7881V13.1826C91.5895 11.927 92.8084 11.3655 94.3731 11.3655C94.9805 11.3523 95.5856 11.4495 96.1614 11.6529Z" fill="#1C1C1E"/>
<path d="M70.8834 19.4527C70.8834 23.6679 68.054 25.4858 64.884 25.4858C61.7141 25.4858 58.8721 23.6679 58.8721 19.4527V11.792H62.2985V19.1387C62.2985 21.275 63.4084 22.142 64.8882 22.142C66.3681 22.142 67.4822 21.2574 67.4822 19.1387V11.7964H70.8876L70.8834 19.4527Z" fill="#1C1C1E"/>
<path fill-rule="evenodd" clip-rule="evenodd" d="M106.639 25.0575H109.992L110 11.7252H108.051C107.273 11.7252 106.642 12.3829 106.639 13.1957C105.721 11.9905 104.309 11.3121 102.835 11.3675C99.3177 11.3675 96.6587 14.3837 96.6587 18.3847C96.6587 22.3857 99.3177 25.3975 102.835 25.3975C104.306 25.4511 105.715 24.7788 106.639 23.5825V25.0575ZM103.444 22.0545C101.419 22.0545 100.151 20.4205 100.151 18.3847C100.151 16.3444 101.478 14.7104 103.444 14.7104C105.409 14.7104 106.737 16.2826 106.737 18.3847C106.737 20.4868 105.468 22.0545 103.444 22.0545Z" fill="#1C1C1E"/>
<path fill-rule="evenodd" clip-rule="evenodd" d="M81.8119 12.084C80.9879 11.7156 80.1006 11.5292 79.2051 11.5363C78.3096 11.5292 77.4223 11.7156 76.5983 12.084C75.8146 12.4427 75.1017 12.952 74.496 13.5856C73.8888 14.2259 73.4048 14.9832 73.0706 15.816C72.7183 16.6812 72.5394 17.6133 72.5451 18.5543C72.5389 19.4896 72.7179 20.4161 73.0706 21.2749C73.4089 22.1054 73.8923 22.8619 74.496 23.5053C75.0967 24.1485 75.8107 24.663 76.5983 25.0202C78.2655 25.7563 80.1447 25.7563 81.8119 25.0202C82.607 24.6655 83.3283 24.1509 83.9352 23.5053C84.5389 22.8619 85.0224 22.1054 85.3606 21.2749C85.7134 20.4161 85.8924 19.4896 85.8862 18.5543C85.8919 17.6133 85.713 16.6812 85.3606 15.816C85.0264 14.9832 84.5425 14.2259 83.9352 13.5856C83.3233 12.9497 82.6031 12.4403 81.8119 12.084ZM76.716 15.9087C77.3689 15.205 78.2699 14.8165 79.2051 14.8355V14.8399C80.6341 14.839 81.9225 15.7439 82.4678 17.1314C83.0131 18.5189 82.7077 20.115 81.6942 21.1733C81.3755 21.5306 80.9868 21.8109 80.5548 21.9948C80.1267 22.1801 79.6681 22.2746 79.2051 22.273C78.2666 22.2824 77.366 21.8845 76.716 21.1733C76.3937 20.8181 76.132 20.4072 75.9424 19.9587C75.7602 19.5169 75.6671 19.0402 75.6691 18.5587C75.6554 17.5615 76.0342 16.6026 76.716 15.9087Z" fill="#1C1C1E"/>
<defs>
<linearGradient id="paint0_linear_133_145" x1="9.77236" y1="31.0606" x2="29.4175" y2="31.0606" gradientUnits="userSpaceOnUse">
<stop stop-color="#6300FF"/>
<stop offset="1" stop-color="#0000FF"/>
</linearGradient>
<linearGradient id="paint1_linear_133_145" x1="15.912" y1="21.7235" x2="26.1815" y2="21.7235" gradientUnits="userSpaceOnUse">
<stop stop-color="#6300FF"/>
<stop offset="1" stop-color="#0000FF"/>
</linearGradient>
<linearGradient id="paint2_linear_133_145" x1="-0.00198244" y1="10.4223" x2="19.4715" y2="10.4223" gradientUnits="userSpaceOnUse">
<stop stop-color="#6300FF"/>
<stop offset="1" stop-color="#0000FF"/>
</linearGradient>
<radialGradient id="paint3_radial_133_145" cx="0" cy="0" r="1" gradientUnits="userSpaceOnUse" gradientTransform="translate(14.5519 9.38276) scale(9.48447 9.0225)">
<stop stop-color="#030238"/>
<stop offset="1" stop-color="#4500FF"/>
</radialGradient>
<linearGradient id="paint4_linear_133_145" x1="9.77236" y1="20.5235" x2="29.4175" y2="20.5235" gradientUnits="userSpaceOnUse">
<stop stop-color="#6300FF"/>
<stop offset="1" stop-color="#0000FF"/>
</linearGradient>
</defs>
</svg>
