<svg width="35" height="35" viewBox="0 0 35 35" fill="none" xmlns="http://www.w3.org/2000/svg">
<path fill-rule="evenodd" clip-rule="evenodd" d="M22.7738 0.00201416C16.684 0.0483387 11.7139 4.94463 11.507 11.1015H11.4081V34.4263C16.1057 34.4252 20.3179 31.4992 22.0058 27.0646C21.9046 27.0646 21.8012 27.0646 21.6977 27.0646C19.2384 27.0678 16.9867 25.6706 15.8749 23.4516C14.7631 21.2325 14.9805 18.5694 16.4371 16.565C17.8937 14.5605 20.3414 13.5559 22.7669 13.9671V11.483H22.8566C29.0957 11.4395 34.1322 6.31352 34.1371 0.00201416H22.7738Z" fill="white"/>
<path fill-rule="evenodd" clip-rule="evenodd" d="M21.2162 24.0322L19.2683 22.2018C18.8044 21.766 18.5304 21.1611 18.5067 20.5203C18.483 19.8795 18.7115 19.2555 19.1418 18.7857L21.2691 20.7864L27.0186 15.8383C28.0259 14.9733 29.532 15.0907 30.397 16.1018L21.2162 24.0322Z" fill="white"/>
<path fill-rule="evenodd" clip-rule="evenodd" d="M11.3338 0.00201416C5.111 0.0528978 0.0926695 5.16084 0.0916138 11.445H22.6288V0.00201416H11.3338Z" fill="white"/>
<path d="M15.1167 20.0253C15.1535 20.0228 15.1583 19.7094 15.2354 19.2576C15.2812 18.9887 15.3601 18.6696 15.4661 18.3413C15.6455 17.7856 15.9372 17.1879 16.3108 16.644C16.4907 16.3821 16.6925 16.1335 16.9041 15.9061C17.0512 15.7479 17.2021 15.5996 17.358 15.4654C17.5778 15.2762 17.7996 15.1034 18.0275 14.9495C18.6884 14.5029 19.385 14.203 20.1114 14.0259C20.4833 13.9353 20.9971 13.8387 21.6588 13.8423C21.8012 13.843 22.0094 13.8467 22.2786 13.8738C22.3656 13.8826 22.5102 13.9022 22.7124 13.9328C22.702 12.303 22.702 11.4809 22.7124 11.4663C23.6394 10.1705 26.5082 10.586 27.2359 10.3159C27.3836 10.2611 27.3094 9.46342 27.3094 9.02765C27.3094 5.29991 25.4844 2.00333 22.6888 0.00220412C20.8072 0.00177671 14.1666 0.00220412 11.1558 0.00220412C10.7644 0.0113526 10.184 0.0915072 9.94401 0.103193C7.22695 2.11318 5.46216 5.36195 5.46216 9.02765C5.46216 9.86454 5.73116 10.6757 6.26916 11.4613C6.76775 11.4613 8.47152 11.4613 11.3805 11.4613C11.3805 13.5887 11.3805 14.8615 11.3805 15.2796C11.3805 16.6619 11.3805 18.2502 11.3805 18.8493C12.7558 19.571 13.9026 19.955 14.8551 20.0166C14.9442 20.0224 15.0315 20.0311 15.1167 20.0253Z" fill="url(#paint0_radial_158_2022)"/>
<path fill-rule="evenodd" clip-rule="evenodd" d="M22.7738 0.00201416C16.684 0.0482692 11.7139 4.93722 11.507 11.0849L11.4081 22.6972C11.4081 16.5007 16.3814 11.4774 22.5163 11.4774H22.7669H22.8566C29.1002 11.434 34.1386 6.30859 34.1371 0.00201416H22.7738Z" fill="white"/>
<defs>
<radialGradient id="paint0_radial_158_2022" cx="0" cy="0" r="1" gradientUnits="userSpaceOnUse" gradientTransform="translate(16.9328 10.2786) scale(10.8824 9.96628)">
<stop stop-color="#030238"/>
<stop offset="1" stop-color="white"/>
</radialGradient>
</defs>
</svg>
