<svg width="90" height="23" viewBox="0 0 90 23" fill="none" xmlns="http://www.w3.org/2000/svg">
<path fill-rule="evenodd" clip-rule="evenodd" d="M11.8192 4.30474H14.4545C16.6498 4.30474 18.4294 2.50639 18.4294 0.288025H4.94993C2.75466 0.288025 0.975037 2.08637 0.975037 4.30474H7.56564V21.8389C9.91371 21.8362 11.8165 19.9134 11.8192 17.5406V4.30474ZM28.0042 10.7831L28.5951 6.80775C27.93 6.58155 27.2311 6.47321 26.5294 6.48756C24.7176 6.48756 23.3014 7.11317 22.3735 8.51217V6.88657H18.5253V21.7436C19.5791 21.7436 20.5897 21.321 21.3344 20.5688C22.0791 19.8167 22.4969 18.7968 22.4956 17.7338V13.6402C22.4956 11.4284 23.7604 10.2905 25.6015 10.2905C26.4262 10.2985 27.2418 10.4657 28.0042 10.7831ZM73.3818 6.80781L72.7863 10.7831C72.0243 10.4657 71.2091 10.2985 70.3847 10.2905C68.5445 10.2905 67.2803 11.4284 67.2803 13.6402V17.7338C67.2816 18.7968 66.8641 19.8167 66.1198 20.5688C65.3754 21.321 64.3653 21.7436 63.312 21.7436V6.88663H67.1632V8.51222C68.0906 7.11323 69.5013 6.48762 71.3122 6.48762C72.0152 6.4729 72.7154 6.58124 73.3818 6.80781ZM37.1833 22.2204C40.8519 22.2204 44.1265 20.1949 44.1265 15.4985L44.1314 6.96802H40.1902V15.1486C40.1902 17.5091 38.9008 18.4948 37.1881 18.4948C35.4754 18.4948 34.1909 17.5289 34.1909 15.1486V6.96309H30.2254V15.4985C30.2254 20.1949 33.5146 22.2204 37.1833 22.2204ZM85.5081 21.7428H89.3878L89.3976 6.88835H87.1422C86.2416 6.88835 85.5108 7.62112 85.5081 8.52682C84.4447 7.18394 82.8108 6.42809 81.105 6.48981C77.0345 6.48981 73.9572 9.85039 73.9572 14.3082C73.9572 18.766 77.0345 22.1217 81.105 22.1217C82.8072 22.1815 84.4382 21.4324 85.5081 20.0994V21.7428ZM81.8095 18.397C79.466 18.397 77.9983 16.5765 77.9983 14.3082C77.9983 12.035 79.5345 10.2145 81.8095 10.2145C84.0844 10.2145 85.6206 11.9661 85.6206 14.3082C85.6206 16.6503 84.1529 18.397 81.8095 18.397ZM53.7575 6.67724C54.7938 6.66927 55.8208 6.87696 56.7744 7.28742C57.69 7.68442 58.5236 8.25197 59.2318 8.96051C59.9345 9.67387 60.4946 10.5176 60.8814 11.4455C61.2892 12.4095 61.4962 13.448 61.4896 14.4965C61.4968 15.5386 61.2897 16.5708 60.8814 17.5277C60.4899 18.453 59.9304 19.2959 59.2318 20.0127C58.5293 20.732 57.6945 21.3054 56.7744 21.7006C54.8449 22.5208 52.67 22.5208 50.7405 21.7006C49.829 21.3026 49.0027 20.7294 48.3075 20.0127C47.6088 19.2959 47.0493 18.453 46.6579 17.5277C46.2496 16.5708 46.0424 15.5386 46.0496 14.4965C46.043 13.448 46.25 12.4095 46.6579 11.4455C47.0446 10.5176 47.6047 9.67387 48.3075 8.96051C49.0084 8.25452 49.8336 7.68709 50.7405 7.28742C51.6941 6.87696 52.7211 6.66927 53.7575 6.67724ZM53.7575 10.3531C52.6751 10.332 51.6323 10.7649 50.8767 11.5489C50.0877 12.3221 49.6492 13.3904 49.6651 14.5014C49.6628 15.0379 49.7705 15.569 49.9814 16.0613C50.2008 16.561 50.5037 17.0188 50.8767 17.4145C51.629 18.2069 52.6713 18.6502 53.7575 18.6398C54.2932 18.6416 54.8241 18.5363 55.3195 18.3298C55.8194 18.1249 56.2694 17.8126 56.6382 17.4145C57.8111 16.2354 58.1646 14.4571 57.5335 12.9112C56.9024 11.3652 55.4113 10.3571 53.7575 10.358V10.3531Z" fill="white"/>
</svg>
