<svg width="24" height="24" viewBox="0 0 24 24" fill="none" xmlns="http://www.w3.org/2000/svg">
<ellipse cx="12.2878" cy="12.2881" rx="11.52" ry="11.52" fill="#F0F0F0"/>
<path d="M11.7871 12.2882H23.808C23.808 11.2484 23.6694 10.2411 23.4111 9.28296H11.7871V12.2882Z" fill="#D80027"/>
<path d="M11.7871 6.2777H22.1171C21.4119 5.12696 20.5103 4.10982 19.459 3.27246H11.7871V6.2777Z" fill="#D80027"/>
<path d="M12.2877 23.8081C14.9989 23.8081 17.4909 22.871 19.4587 21.3037H5.1167C7.08455 22.871 9.57651 23.8081 12.2877 23.8081Z" fill="#D80027"/>
<path d="M2.45877 18.2985H22.1171C22.6833 17.3746 23.1223 16.3648 23.4111 15.2932H1.16479C1.45356 16.3648 1.89262 17.3746 2.45877 18.2985Z" fill="#D80027"/>
<path fill-rule="evenodd" clip-rule="evenodd" d="M7.15391 2.56708H6.1041C7.89065 1.42822 10.0121 0.768066 12.2878 0.768066V12.2881H0.767822C0.767822 11.8016 0.798332 11.3222 0.856877 10.8516L1.44179 10.4266L2.41824 11.1361L2.04524 9.98816L3.02174 9.27874H1.81475L1.48773 8.27218C1.60091 7.96775 1.72682 7.66954 1.86447 7.37789L2.41824 7.78024L2.12142 6.86669C2.21043 6.70015 2.30331 6.53603 2.40015 6.37448L3.02174 5.92291H2.68536C3.30636 4.98799 4.05993 4.14892 4.9197 3.43274L4.5975 4.42441L5.57396 3.71498L6.55041 4.42441L6.17741 3.2765L7.15391 2.56708ZM5.57382 10.4266L6.55028 11.1361L6.17728 9.98816L7.15378 9.27873H5.94678L5.57382 8.13083L5.20086 9.27873H3.99387L4.97038 9.98816L4.59737 11.1361L5.57382 10.4266ZM6.17728 6.63234L6.55028 7.78025L5.57382 7.07082L4.59737 7.78025L4.97038 6.63234L3.99387 5.92292H5.20086L5.57382 4.77501L5.94678 5.92292H7.15378L6.17728 6.63234ZM9.70621 10.4266L10.6827 11.1361L10.3097 9.98816L11.2862 9.27873H10.0792L9.70621 8.13083L9.33325 9.27873H8.12626L9.10276 9.98816L8.72976 11.1361L9.70621 10.4266ZM10.3097 6.63234L10.6827 7.78025L9.70621 7.07082L8.72976 7.78025L9.10276 6.63234L8.12626 5.92292H9.33325L9.70621 4.77501L10.0792 5.92292H11.2862L10.3097 6.63234ZM10.6827 4.42441L10.3097 3.2765L11.2862 2.56708H10.0792L9.70621 1.41917L9.33325 2.56708H8.12626L9.10276 3.2765L8.72976 4.42441L9.70621 3.71498L10.6827 4.42441Z" fill="#0052B4"/>
</svg>
