<svg width="24" height="24" viewBox="0 0 24 24" fill="none" xmlns="http://www.w3.org/2000/svg">
<circle cx="12" cy="12" r="12" fill="#6DA544"/>
<path d="M12.0004 4.69556L21.9135 11.9999L12.0004 19.3042L2.0874 11.9999L12.0004 4.69556Z" fill="#FFDA44"/>
<circle cx="12.0003" cy="12.0001" r="4.17389" fill="#F0F0F0"/>
<path d="M9.91325 11.7393C9.18743 11.7393 8.48698 11.8496 7.82764 12.0545C7.85684 14.3345 9.71328 16.1741 12.0002 16.1741C13.4143 16.1741 14.6633 15.4701 15.4183 14.3943C14.1266 12.7773 12.139 11.7393 9.91325 11.7393Z" fill="#0052B4"/>
<path d="M16.0966 12.7998C16.1469 12.5408 16.174 12.2737 16.174 12.0001C16.174 9.69484 14.3053 7.82617 12.0001 7.82617C10.2801 7.82617 8.80355 8.86684 8.16455 10.3527C8.72939 10.2356 9.31421 10.174 9.91322 10.174C12.3375 10.174 14.5306 11.1817 16.0966 12.7998Z" fill="#0052B4"/>
</svg>
