<svg width="45" height="45" viewBox="0 0 45 45" fill="none" xmlns="http://www.w3.org/2000/svg">
<path fill-rule="evenodd" clip-rule="evenodd" d="M8 22.8956C8 14.6822 14.6822 8 22.8956 8C31.1096 8 37.7912 14.6822 37.7912 22.8956C37.7912 31.1084 31.1084 37.7912 22.8956 37.7912C14.6822 37.7912 8 31.1084 8 22.8956ZM24.1766 23.42H26.6L26.9138 20.3678H24.1778V18.5738C24.1778 17.8994 24.6248 17.7422 24.9392 17.7422H26.8706V14.7788L24.2096 14.7686C21.2576 14.7686 20.5856 16.9784 20.5856 18.3926V20.3672H18.8786V23.42H20.5856V32.0576H24.1766V23.42Z" fill="#9C9CAE"/>
<mask id="mask0_158_1687" style="mask-type:alpha" maskUnits="userSpaceOnUse" x="8" y="8" width="30" height="30">
<path fill-rule="evenodd" clip-rule="evenodd" d="M8 22.8956C8 14.6822 14.6822 8 22.8956 8C31.1096 8 37.7912 14.6822 37.7912 22.8956C37.7912 31.1084 31.1084 37.7912 22.8956 37.7912C14.6822 37.7912 8 31.1084 8 22.8956ZM24.1766 23.42H26.6L26.9138 20.3678H24.1778V18.5738C24.1778 17.8994 24.6248 17.7422 24.9392 17.7422H26.8706V14.7788L24.2096 14.7686C21.2576 14.7686 20.5856 16.9784 20.5856 18.3926V20.3672H18.8786V23.42H20.5856V32.0576H24.1766V23.42Z" fill="#9C9CAE"/>
</mask>
<g mask="url(#mask0_158_1687)">
<rect y="1" width="44" height="43" rx="3" fill="#9C9CAE"/>
</g>
</svg>
