<svg width="45" height="45" viewBox="0 0 45 45" fill="none" xmlns="http://www.w3.org/2000/svg">
<path fill-rule="evenodd" clip-rule="evenodd" d="M8 23C8 14.729 14.729 8 23 8C31.2716 8 38 14.729 38 23C38 31.2704 31.2704 38 23 38C14.729 38 8 31.2704 8 23ZM29.7707 30.9387C30.4251 30.9387 30.9544 30.4227 30.9544 29.7846V15.9822C30.9544 15.3453 30.4245 14.8281 29.7707 14.8281H16.1272C15.4746 14.8281 14.9447 15.3447 14.9447 15.9822V29.7846C14.9447 30.4227 15.4746 30.9387 16.1272 30.9387H29.7707ZM23.5553 22.0695C23.8761 21.5741 24.4495 20.8684 25.7334 20.8684C27.3243 20.8684 28.5176 21.9082 28.5188 24.1413V28.3134H28.5182H26.1002V24.4211C26.1002 23.4423 25.7503 22.7752 24.8755 22.7752C24.2072 22.7752 23.8096 23.2254 23.6344 23.6604C23.5692 23.8157 23.5553 24.0338 23.5553 24.2507V28.3152H21.1372C21.1372 28.3152 21.1687 21.7215 21.1372 21.04H23.5553V22.0695ZM19.7971 28.3152V21.04H17.3791V28.3152H19.7971ZM17.2365 18.7893C17.2365 18.0751 17.7779 17.5325 18.6044 17.5325C19.4322 17.5325 19.9403 18.0757 19.9566 18.7893C19.9566 19.4872 19.4316 20.046 18.5881 20.046H18.5724C17.7615 20.046 17.2365 19.4872 17.2365 18.7893Z" fill="#9C9CAE"/>
<mask id="mask0_158_1711" style="mask-type:alpha" maskUnits="userSpaceOnUse" x="8" y="8" width="30" height="30">
<path fill-rule="evenodd" clip-rule="evenodd" d="M8 23C8 14.729 14.729 8 23 8C31.2716 8 38 14.729 38 23C38 31.2704 31.2704 38 23 38C14.729 38 8 31.2704 8 23ZM29.7707 30.9387C30.4251 30.9387 30.9544 30.4227 30.9544 29.7846V15.9822C30.9544 15.3453 30.4245 14.8281 29.7707 14.8281H16.1272C15.4746 14.8281 14.9447 15.3447 14.9447 15.9822V29.7846C14.9447 30.4227 15.4746 30.9387 16.1272 30.9387H29.7707ZM23.5553 22.0695C23.8761 21.5741 24.4495 20.8684 25.7334 20.8684C27.3243 20.8684 28.5176 21.9082 28.5188 24.1413V28.3134H28.5182H26.1002V24.4211C26.1002 23.4423 25.7503 22.7752 24.8755 22.7752C24.2072 22.7752 23.8096 23.2254 23.6344 23.6604C23.5692 23.8157 23.5553 24.0338 23.5553 24.2507V28.3152H21.1372C21.1372 28.3152 21.1687 21.7215 21.1372 21.04H23.5553V22.0695ZM19.7971 28.3152V21.04H17.3791V28.3152H19.7971ZM17.2365 18.7893C17.2365 18.0751 17.7779 17.5325 18.6044 17.5325C19.4322 17.5325 19.9403 18.0757 19.9566 18.7893C19.9566 19.4872 19.4316 20.046 18.5881 20.046H18.5724C17.7615 20.046 17.2365 19.4872 17.2365 18.7893Z" fill="#9C9CAE"/>
</mask>
<g mask="url(#mask0_158_1711)">
<rect y="1" width="44" height="43" rx="3" fill="#9C9CAE"/>
</g>
</svg>
