<svg width="45" height="45" viewBox="0 0 45 45" fill="none" xmlns="http://www.w3.org/2000/svg">
<path fill-rule="evenodd" clip-rule="evenodd" d="M8 22.8956C8 14.6822 14.6822 8 22.8956 8C31.1096 8 37.7912 14.6822 37.7912 22.8956C37.7912 31.1084 31.1084 37.7912 22.8956 37.7912C14.6822 37.7912 8 31.1084 8 22.8956ZM29.5508 19.9316C29.5508 19.7828 29.5472 19.634 29.5406 19.4864C30.2108 19.0046 30.7922 18.4004 31.2494 17.714C30.6368 17.987 29.9744 18.1706 29.2802 18.2534C29.99 17.8286 30.5318 17.1572 30.7898 16.3562C30.1256 16.7504 29.3936 17.0348 28.6118 17.1884C27.9854 16.5224 27.0956 16.106 26.1092 16.106C24.2162 16.106 22.6814 17.6414 22.6814 19.5344C22.6814 19.8038 22.7108 20.0648 22.7696 20.3162C19.9208 20.1722 17.3936 18.8078 15.7034 16.733C15.4082 17.2394 15.2396 17.8286 15.2396 18.4574C15.2396 19.6466 15.845 20.6966 16.7642 21.3104C16.2026 21.293 15.674 21.1382 15.212 20.882C15.2114 20.8958 15.2114 20.9108 15.2114 20.9252C15.2114 22.5872 16.3928 23.9726 17.9612 24.287C17.6738 24.3656 17.3702 24.4064 17.0576 24.4064C16.8374 24.4064 16.622 24.3842 16.4132 24.3446C16.8494 25.7072 18.116 26.6984 19.616 26.726C18.4424 27.6452 16.9646 28.1936 15.3578 28.1936C15.0812 28.1936 14.8082 28.1774 14.54 28.1456C16.0568 29.1188 17.8592 29.6846 19.7954 29.6846C26.1032 29.6846 29.5508 24.4622 29.5508 19.9316Z" fill="#9C9CAE"/>
<mask id="mask0_158_1699" style="mask-type:alpha" maskUnits="userSpaceOnUse" x="8" y="8" width="30" height="30">
<path fill-rule="evenodd" clip-rule="evenodd" d="M8 22.8956C8 14.6822 14.6822 8 22.8956 8C31.1096 8 37.7912 14.6822 37.7912 22.8956C37.7912 31.1084 31.1084 37.7912 22.8956 37.7912C14.6822 37.7912 8 31.1084 8 22.8956ZM29.5508 19.9316C29.5508 19.7828 29.5472 19.634 29.5406 19.4864C30.2108 19.0046 30.7922 18.4004 31.2494 17.714C30.6368 17.987 29.9744 18.1706 29.2802 18.2534C29.99 17.8286 30.5318 17.1572 30.7898 16.3562C30.1256 16.7504 29.3936 17.0348 28.6118 17.1884C27.9854 16.5224 27.0956 16.106 26.1092 16.106C24.2162 16.106 22.6814 17.6414 22.6814 19.5344C22.6814 19.8038 22.7108 20.0648 22.7696 20.3162C19.9208 20.1722 17.3936 18.8078 15.7034 16.733C15.4082 17.2394 15.2396 17.8286 15.2396 18.4574C15.2396 19.6466 15.845 20.6966 16.7642 21.3104C16.2026 21.293 15.674 21.1382 15.212 20.882C15.2114 20.8958 15.2114 20.9108 15.2114 20.9252C15.2114 22.5872 16.3928 23.9726 17.9612 24.287C17.6738 24.3656 17.3702 24.4064 17.0576 24.4064C16.8374 24.4064 16.622 24.3842 16.4132 24.3446C16.8494 25.7072 18.116 26.6984 19.616 26.726C18.4424 27.6452 16.9646 28.1936 15.3578 28.1936C15.0812 28.1936 14.8082 28.1774 14.54 28.1456C16.0568 29.1188 17.8592 29.6846 19.7954 29.6846C26.1032 29.6846 29.5508 24.4622 29.5508 19.9316Z" fill="#9C9CAE"/>
</mask>
<g mask="url(#mask0_158_1699)">
<rect x="1" y="1" width="44" height="43" rx="3" fill="#9C9CAE"/>
</g>
</svg>
