<svg width="45" height="45" viewBox="0 0 45 45" fill="none" xmlns="http://www.w3.org/2000/svg">
<path fill-rule="evenodd" clip-rule="evenodd" d="M23 8C14.717 8 8 14.717 8 23C8 31.283 14.717 38 23 38C31.283 38 38 31.283 38 23C38 14.717 31.283 8 23 8ZM32.3727 23.0153C32.3727 23.0153 32.3727 26.0574 31.9868 27.5243C31.7705 28.3272 31.1374 28.9603 30.3345 29.1764C28.8676 29.5625 23 29.5625 23 29.5625C23 29.5625 17.1477 29.5625 15.6655 29.161C14.8626 28.945 14.2295 28.3117 14.0132 27.5087C13.6271 26.0574 13.6271 23 13.6271 23C13.6271 23 13.6271 19.9582 14.0132 18.4913C14.2292 17.6883 14.8779 17.0397 15.6655 16.8236C17.1324 16.4375 23 16.4375 23 16.4375C23 16.4375 28.8676 16.4375 30.3345 16.839C31.1374 17.055 31.7705 17.6883 31.9868 18.4913C32.3883 19.9582 32.3727 23.0153 32.3727 23.0153ZM26.0109 23L21.1316 25.8102V20.1898L26.0109 23Z" fill="#9C9CAE"/>
<mask id="mask0_158_1731" style="mask-type:alpha" maskUnits="userSpaceOnUse" x="8" y="8" width="30" height="30">
<path fill-rule="evenodd" clip-rule="evenodd" d="M23 8C14.717 8 8 14.717 8 23C8 31.283 14.717 38 23 38C31.283 38 38 31.283 38 23C38 14.717 31.283 8 23 8ZM32.3727 23.0153C32.3727 23.0153 32.3727 26.0574 31.9868 27.5243C31.7705 28.3272 31.1374 28.9603 30.3345 29.1764C28.8676 29.5625 23 29.5625 23 29.5625C23 29.5625 17.1477 29.5625 15.6655 29.161C14.8626 28.945 14.2295 28.3117 14.0132 27.5087C13.6271 26.0574 13.6271 23 13.6271 23C13.6271 23 13.6271 19.9582 14.0132 18.4913C14.2292 17.6883 14.8779 17.0397 15.6655 16.8236C17.1324 16.4375 23 16.4375 23 16.4375C23 16.4375 28.8676 16.4375 30.3345 16.839C31.1374 17.055 31.7705 17.6883 31.9868 18.4913C32.3883 19.9582 32.3727 23.0153 32.3727 23.0153ZM26.0109 23L21.1316 25.8102V20.1898L26.0109 23Z" fill="#9C9CAE"/>
</mask>
<g mask="url(#mask0_158_1731)">
<rect x="2.25806" y="3.58057" width="39.7419" height="38.8387" rx="3" fill="#9C9CAE"/>
</g>
</svg>
